<svg id="Capa_1" data-name="Capa 1" xmlns="http://www.w3.org/2000/svg" xmlns:xlink="http://www.w3.org/1999/xlink" viewBox="0 0 148.23 148.23"><defs><style>.cls-1{fill:none;}.cls-2{fill:#fff;}.cls-3{clip-path:url(#clip-path);}</style><clipPath id="clip-path"><rect class="cls-1" x="44.47" y="40.76" width="59.29" height="66.7"/></clipPath></defs><path class="cls-2" d="M0,74.12a74.12,74.12,0,1,1,74.12,74.11A74.11,74.11,0,0,1,0,74.12Z"/><g class="cls-3"><path d="M74.13,59.13a15,15,0,1,0,15.21,15A15.07,15.07,0,0,0,74.13,59.13Zm0,24.71A9.74,9.74,0,1,1,84,74.1,9.84,9.84,0,0,1,74.13,83.84ZM93.51,58.52A3.55,3.55,0,1,1,90,55,3.51,3.51,0,0,1,93.51,58.52Zm10.07,3.55c-.23-4.68-1.31-8.82-4.79-12.24s-7.68-4.48-12.43-4.71c-4.9-.28-19.58-.28-24.47,0s-9,1.29-12.43,4.7-4.55,7.56-4.79,12.23c-.28,4.82-.28,19.27,0,24.09S46,95,49.46,98.38s7.68,4.48,12.43,4.71,19.57.28,24.47,0c4.75-.22,9-1.29,12.43-4.71s4.55-7.56,4.79-12.24S103.86,66.89,103.58,62.07ZM97.25,91.31a9.9,9.9,0,0,1-5.64,5.55C87.71,98.39,78.44,98,74.13,98s-13.59.34-17.48-1.18A9.87,9.87,0,0,1,51,91.31c-1.55-3.84-1.19-13-1.19-17.21S49.47,60.72,51,56.89a9.93,9.93,0,0,1,5.64-5.55c3.9-1.52,13.17-1.17,17.48-1.17s13.59-.34,17.48,1.17a9.93,9.93,0,0,1,5.64,5.55c1.55,3.85,1.19,13,1.19,17.21S98.8,87.48,97.25,91.31Z"/></g></svg>