<svg id="Capa_1" data-name="Capa 1" xmlns="http://www.w3.org/2000/svg" xmlns:xlink="http://www.w3.org/1999/xlink" viewBox="0 0 148.23 148.23"><defs><style>.cls-1{fill:none;}.cls-2{fill:#fff;}.cls-3{clip-path:url(#clip-path);}</style><clipPath id="clip-path"><rect class="cls-1" x="51.88" y="40.76" width="44.47" height="70.41"/></clipPath></defs><path class="cls-2" d="M0,74.12A74.11,74.11,0,0,1,74.12,0h0a74.11,74.11,0,0,1,74.11,74.12h0a74.11,74.11,0,0,1-74.11,74.11h0A74.11,74.11,0,0,1,0,74.12Z"/><g class="cls-3"><path d="M90.67,80.37l2-12.74H80.29V59.36c0-3.49,1.73-6.89,7.26-6.89h5.62V41.62a69.31,69.31,0,0,0-10-.86c-10.18,0-16.83,6.11-16.83,17.16v9.71H55.06V80.37H66.37v30.8H80.29V80.37Z"/></g></svg>