<svg id="Capa_1" data-name="Capa 1" xmlns="http://www.w3.org/2000/svg" viewBox="0 0 148.23 148.23"><defs><style>.cls-1{fill:#fff;}.cls-2{fill-rule:evenodd;}</style></defs><path class="cls-1" d="M0,74.12a74.12,74.12,0,1,1,74.12,74.11A74.11,74.11,0,0,1,0,74.12Z"/><path class="cls-2" d="M98,50.46A33.33,33.33,0,0,0,74.53,40.9c-18.3,0-33.19,14.6-33.19,32.54a32.1,32.1,0,0,0,4.44,16.28l-4.72,16.86,17.59-4.51a33.64,33.64,0,0,0,15.88,4c18.3,0,33.18-14.59,33.21-32.56A32,32,0,0,0,98,50.46ZM74.53,100.52a27.89,27.89,0,0,1-14.06-3.77l-1-.58L49,98.86l2.8-10-.66-1a26.64,26.64,0,0,1-4.2-14.4c0-14.93,12.4-27,27.59-27A27.68,27.68,0,0,1,94,54.33a26.59,26.59,0,0,1,8.08,19.14C102.12,88.39,89.75,100.52,74.53,100.52ZM89.66,80.28c-.81-.42-4.91-2.38-5.67-2.66s-1.33-.42-1.87.42S80,80.69,79.5,81.22s-1,.61-1.81.19a22.91,22.91,0,0,1-6.66-4,25,25,0,0,1-4.61-5.62c-.48-.8,0-1.22.37-1.66a19.91,19.91,0,0,0,2.06-2.77,1.42,1.42,0,0,0-.06-1.41c-.19-.45-1.86-4.43-2.54-6.07s-1.35-1.38-1.86-1.38-1,0-1.61,0a3,3,0,0,0-2.2,1,8.93,8.93,0,0,0-2.91,6.78c0,4,3,7.86,3.39,8.42S66.9,83.41,75.23,87c2,.83,3.53,1.33,4.72,1.72a12,12,0,0,0,5.22.33c1.58-.22,4.92-2,5.6-3.88a7,7,0,0,0,.48-3.87C91.05,80.89,90.51,80.67,89.66,80.28Z"/></svg>