<svg id="Capa_1" data-name="Capa 1" xmlns="http://www.w3.org/2000/svg" viewBox="0 0 27.9848 27.5691">
  <defs>
    <style>
      .cls-1 {
        fill: none;
        stroke: #1a1a1a;
        stroke-width: 0.26px;
      }

      .cls-2 {
        fill: #1a1a1a;
      }
    </style>
  </defs>
  <rect class="cls-1" x="6.9106" y="0.13" width="14.15" height="14.15" rx="1.61"/>
  <path class="cls-2" d="M15.14,6.28a1.38,1.38,0,0,0-1.07-.48c-.53,0-1,.16-1,.62s.5.49,1,.55c.92.12,1.91.28,1.91,1.39a1.46,1.46,0,0,1-1.5,1.39v.62h-.8V9.75a1.87,1.87,0,0,1-1.66-1.08l.75-.31A1.39,1.39,0,0,0,13.98,9c.56,0,1.09-.2,1.09-.69s-.53-.57-1.11-.61c-.91-.08-1.82-.24-1.82-1.29,0-.83.73-1.23,1.47-1.29V4.56h.8V5.1a1.59,1.59,0,0,1,1.34.9Z" transform="translate(0.001)"/>
  <path d="M9.0494,18.0791h.2519v2.25H9.0494v-.2548a.6107.6107,0,0,1-.2056.2128.56.56,0,0,1-.3032.0811.761.761,0,0,1-.3057-.0615.8011.8011,0,0,1-.4219-.4219.7593.7593,0,0,1-.0615-.3057.7673.7673,0,0,1,.0615-.3066.7905.7905,0,0,1,.17-.252.8.8,0,0,1,.2514-.17A.761.761,0,0,1,8.54,18.789a.56.56,0,0,1,.3032.08.6136.6136,0,0,1,.2056.2138Zm-.5059,2.0455a.4489.4489,0,0,0,.2573-.0733.48.48,0,0,0,.168-.1972.6305.6305,0,0,0,.06-.2745.6237.6237,0,0,0-.06-.2763A.4864.4864,0,0,0,8.8,19.106a.4539.4539,0,0,0-.2559-.0723.5086.5086,0,0,0-.269.0733.5522.5522,0,0,0-.1929.1972A.5406.5406,0,0,0,8.01,19.58a.5317.5317,0,0,0,.0733.2754.5647.5647,0,0,0,.1953.1963.5032.5032,0,0,0,.265.0733Z" transform="translate(0.001)"/>
  <path d="M10.374,20.3685a.6947.6947,0,0,1-.377-.1064.8192.8192,0,0,1-.3144-.9913.83.83,0,0,1,.1611-.2519.7588.7588,0,0,1,.2393-.17.7311.7311,0,0,1,.6025.0068.7091.7091,0,0,1,.2427.19.81.81,0,0,1,.1518.2822.9269.9269,0,0,1,.0367.3437H9.8925a.5451.5451,0,0,0,.084.2266.4764.4764,0,0,0,.169.1582.4623.4623,0,0,0,.2285.06.4416.4416,0,0,0,.2446-.07.5166.5166,0,0,0,.1773-.19l.2563.06a.7817.7817,0,0,1-.2715.3261A.69.69,0,0,1,10.374,20.3685Zm-.4888-.8955h.978a.5017.5017,0,0,0-.081-.23.5337.5337,0,0,0-.1758-.167.4611.4611,0,0,0-.4634-.0019.5259.5259,0,0,0-.1733.166.5452.5452,0,0,0-.0845.2331Z" transform="translate(0.001)"/>
  <path d="M13.4043,18.0791h.2519v2.25h-.2519v-.2548a.6107.6107,0,0,1-.2056.2128.56.56,0,0,1-.3032.0811.761.761,0,0,1-.3057-.0615.8.8,0,0,1-.4219-.4219.7593.7593,0,0,1-.0615-.3057.7673.7673,0,0,1,.0615-.3066.7982.7982,0,0,1,.4215-.422.761.761,0,0,1,.3057-.0615.56.56,0,0,1,.3032.08.6136.6136,0,0,1,.2056.2138Zm-.5059,2.0455a.4489.4489,0,0,0,.2573-.0733.48.48,0,0,0,.168-.1972.6334.6334,0,0,0,.06-.2745.6237.6237,0,0,0-.06-.2763.4864.4864,0,0,0-.1689-.1973.4539.4539,0,0,0-.2559-.0723.5086.5086,0,0,0-.269.0733.5522.5522,0,0,0-.1929.1972.5406.5406,0,0,0-.0718.2754.5317.5317,0,0,0,.0733.2754.5647.5647,0,0,0,.1953.1963A.5028.5028,0,0,0,12.8984,20.1246Z" transform="translate(0.001)"/>
  <path d="M14.7285,20.3685a.6947.6947,0,0,1-.377-.1064.8192.8192,0,0,1-.3144-.9913.8251.8251,0,0,1,.1611-.2519.7572.7572,0,0,1,.2393-.17.7311.7311,0,0,1,.6025.0068.71.71,0,0,1,.2427.19.81.81,0,0,1,.1518.2822.929.929,0,0,1,.0367.3437H14.247a.5451.5451,0,0,0,.084.2266.4764.4764,0,0,0,.169.1582.4623.4623,0,0,0,.2285.06.4416.4416,0,0,0,.2446-.07.5174.5174,0,0,0,.1773-.19l.2563.06a.7831.7831,0,0,1-.2715.3261A.69.69,0,0,1,14.7285,20.3685Zm-.4891-.8953h.978a.5017.5017,0,0,0-.081-.23.5337.5337,0,0,0-.1758-.167.4611.4611,0,0,0-.4634-.0019.5259.5259,0,0,0-.1733.166A.5444.5444,0,0,0,14.2394,19.4732Z" transform="translate(0.001)"/>
  <path d="M16.2622,20.3585a.7851.7851,0,0,1-.2368-.0459.6592.6592,0,0,1-.2007-.1123.4287.4287,0,0,1-.1255-.1641l.2163-.0928a.2475.2475,0,0,0,.0806.0957.4935.4935,0,0,0,.1347.0723.4826.4826,0,0,0,.1548.0264.4513.4513,0,0,0,.1553-.0254.2888.2888,0,0,0,.1181-.0752.1809.1809,0,0,0,.045-.1211.1494.1494,0,0,0-.05-.1182.3763.3763,0,0,0-.126-.0674c-.0508-.0166-.1016-.0322-.1543-.0468a1.765,1.765,0,0,1-.2759-.0938.5116.5116,0,0,1-.1914-.14.3315.3315,0,0,1-.07-.2168.3905.3905,0,0,1,.0771-.2413.5057.5057,0,0,1,.2036-.1572.6619.6619,0,0,1,.27-.0556.6981.6981,0,0,1,.332.0781.5261.5261,0,0,1,.2236.2109l-.2031.1192a.2659.2659,0,0,0-.0771-.0957.4509.4509,0,0,0-.1211-.0655.4435.4435,0,0,0-.1377-.0254.4752.4752,0,0,0-.1636.0225.2911.2911,0,0,0-.1211.0771.1894.1894,0,0,0-.0459.129.1362.1362,0,0,0,.0488.1132.3627.3627,0,0,0,.128.0625c.0532.0157.11.0332.1723.0537a1.9284,1.9284,0,0,1,.2539.1.575.575,0,0,1,.1924.1425.3145.3145,0,0,1,.0713.2119.3789.3789,0,0,1-.083.2413.5222.5222,0,0,1-.2139.1562A.6641.6641,0,0,1,16.2622,20.3585Z" transform="translate(0.001)"/>
  <path d="M18.1753,19.9332l.2246.122a.7669.7669,0,0,1-.2588.2276.718.718,0,0,1-.7168-.0205.7994.7994,0,0,1-.3731-.6827.81.81,0,0,1,.0586-.3086.8284.8284,0,0,1,.1612-.2519.7526.7526,0,0,1,.2392-.17.7016.7016,0,0,1,.291-.0616.6921.6921,0,0,1,.34.086.75.75,0,0,1,.2588.23l-.2246.1211a.5231.5231,0,0,0-.1709-.1368.4593.4593,0,0,0-.2032-.0478.4514.4514,0,0,0-.2529.0742.5355.5355,0,0,0-.1787.1973.56.56,0,0,0-.0664.2685.544.544,0,0,0,.0674.2676.5345.5345,0,0,0,.18.1963.4619.4619,0,0,0,.46.0225A.5372.5372,0,0,0,18.1753,19.9332Z" transform="translate(0.001)"/>
  <path d="M18.6919,19.6246V18.83h.2519v.7889a.5472.5472,0,0,0,.0586.2539.4776.4776,0,0,0,.1592.1836.4.4,0,0,0,.2265.0684.3812.3812,0,0,0,.2227-.0684.46.46,0,0,0,.1514-.1836.5739.5739,0,0,0,.0547-.2539v-.7891h.2519v1.5h-.2519V20.097a.6267.6267,0,0,1-.1993.1992.493.493,0,0,1-.2656.0733.5843.5843,0,0,1-.3437-.1016.6869.6869,0,0,1-.23-.2715A.8724.8724,0,0,1,18.6919,19.6246Z" transform="translate(0.001)"/>
  <path d="M21.1186,20.3685a.6944.6944,0,0,1-.3769-.1064.8191.8191,0,0,1-.3145-.9913.83.83,0,0,1,.1611-.2519.7519.7519,0,0,1,.2393-.17.7166.7166,0,0,1,.8457.1963.8115.8115,0,0,1,.1514.2822.9082.9082,0,0,1,.0361.3437H20.6372a.5364.5364,0,0,0,.084.2266.4753.4753,0,0,0,.1689.1582.4623.4623,0,0,0,.2285.06.4459.4459,0,0,0,.2451-.07.5184.5184,0,0,0,.1768-.19l.2559.06a.78.78,0,0,1-.2715.3261A.6869.6869,0,0,1,21.1186,20.3685Zm-.4892-.8955h.9785a.4958.4958,0,0,0-.0811-.23.5337.5337,0,0,0-.1758-.167.46.46,0,0,0-.4629-.0019.5216.5216,0,0,0-.1738.166.5626.5626,0,0,0-.0849.2331Z" transform="translate(0.001)"/>
  <path d="M23.5073,19.5318V20.33h-.252v-.792a.55.55,0,0,0-.0586-.2539.4854.4854,0,0,0-.1591-.1836.4.4,0,0,0-.2266-.0683.38.38,0,0,0-.2217.0683.47.47,0,0,0-.1523.1836.5857.5857,0,0,0-.0547.2539v.792H22.13v-1.5h.252v.2315a.6153.6153,0,0,1,.2-.2012.5049.5049,0,0,1,.2656-.0723.5933.5933,0,0,1,.3428.1016.6974.6974,0,0,1,.2314.2715A.8386.8386,0,0,1,23.5073,19.5318Z" transform="translate(0.001)"/>
  <path d="M24.6557,19.0816h-.3408l-.001,1.248H24.062l.001-1.248h-.2579V18.83h.2579l-.001-.4707h.2519l.001.4707h.3408Z" transform="translate(0.001)"/>
  <path d="M25.5815,20.3685a.6944.6944,0,0,1-.3769-.1064.8191.8191,0,0,1-.3145-.9913.83.83,0,0,1,.1611-.2519.7519.7519,0,0,1,.2393-.17.7016.7016,0,0,1,.291-.0616.694.694,0,0,1,.377.1065.8153.8153,0,0,1,.1533,1.2432.75.75,0,0,1-.2383.17A.6982.6982,0,0,1,25.5815,20.3685Zm0-.252a.4557.4557,0,0,0,.2549-.0742.5283.5283,0,0,0,.1777-.1963.5773.5773,0,0,0-.001-.5361.539.539,0,0,0-.18-.1973.4533.4533,0,0,0-.252-.0732.4445.4445,0,0,0-.2529.0742.5355.5355,0,0,0-.1787.1973.5806.5806,0,0,0,.0009.541.5238.5238,0,0,0,.1817.1934.4585.4585,0,0,0,.2494.0714Z" transform="translate(0.001)"/>
  <path d="M1.2959,22.43h.2519v1.5H1.2944l-.0088-.2539a.5673.5673,0,0,1-.1938.2122.5258.5258,0,0,1-.2935.0811.7627.7627,0,0,1-.31-.0625A.8069.8069,0,0,1,.062,23.48a.7868.7868,0,0,1,.166-.8633.798.798,0,0,1,.248-.1679.7584.7584,0,0,1,.3008-.0606.58.58,0,0,1,.313.083.6582.6582,0,0,1,.2153.2159ZM.8042,23.7251A.4416.4416,0,0,0,1.062,23.65a.47.47,0,0,0,.164-.2011.61.61,0,0,0,.05-.2793.6253.6253,0,0,0-.07-.2715.5139.5139,0,0,0-.1738-.1924.4568.4568,0,0,0-.2554-.0713.5072.5072,0,0,0-.27.0752.5319.5319,0,0,0-.252.4812.5566.5566,0,0,0,.084.27.5786.5786,0,0,0,.1988.1934A.5275.5275,0,0,0,.8042,23.7251Z" transform="translate(0.001)"/>
  <path d="M2.7089,22.3885a.7636.7636,0,0,1,.3985.1065.81.81,0,0,1,.2856.2861.7643.7643,0,0,1,.1065.3975.7738.7738,0,0,1-.0615.3076.8121.8121,0,0,1-.17.2519.7973.7973,0,0,1-.2519.17.7692.7692,0,0,1-.3067.0615.5486.5486,0,0,1-.3022-.082.6189.6189,0,0,1-.2046-.2139v.2568H1.95v-2.25h.2516v1.0039a.61.61,0,0,1,.2046-.2138A.548.548,0,0,1,2.7089,22.3885Zm-.0029,1.335a.5121.5121,0,0,0,.27-.0733.55.55,0,0,0,.1934-.1972.55.55,0,0,0-.1963-.7471.5077.5077,0,0,0-.2671-.0732.44.44,0,0,0-.2558.0742.4834.4834,0,0,0-.168.1973.6686.6686,0,0,0,0,.55.4791.4791,0,0,0,.1689.1972.4528.4528,0,0,0,.2549.0718Z" transform="translate(0.001)"/>
  <path d="M4.4418,23.9693a.694.694,0,0,1-.377-.1065.819.819,0,0,1-.3144-.9912.8251.8251,0,0,1,.1611-.2519.7572.7572,0,0,1,.2393-.17.72.72,0,0,1,.6684.0449.7964.7964,0,0,1,.2715.2861.8166.8166,0,0,1-.1187.957.7554.7554,0,0,1-.2382.17A.7.7,0,0,1,4.4418,23.9693Zm0-.252a.4515.4515,0,0,0,.2544-.0742.5318.5318,0,0,0,.1787-.1963A.56.56,0,0,0,4.94,23.18a.554.554,0,0,0-.0664-.27.54.54,0,0,0-.18-.1973.47.47,0,0,0-.5053.001.5377.5377,0,0,0-.1783.1973.5783.5783,0,0,0,.0015.541.5274.5274,0,0,0,.1811.1933A.4581.4581,0,0,0,4.4418,23.7173Z" transform="translate(0.001)"/>
  <path d="M6.831,23.1324V23.93H6.5791v-.7917a.55.55,0,0,0-.0586-.2539.4772.4772,0,0,0-.1587-.1836.3985.3985,0,0,0-.2266-.0683.3785.3785,0,0,0-.2212.0683.4706.4706,0,0,0-.1523.1836.5731.5731,0,0,0-.0557.2539v.792H5.4541v-1.5H5.706v.2315a.63.63,0,0,1,.2-.2012.5072.5072,0,0,1,.2668-.0723.5933.5933,0,0,1,.3428.1016.7007.7007,0,0,1,.2309.2715A.8445.8445,0,0,1,6.831,23.1324Z" transform="translate(0.001)"/>
  <path d="M8.3818,22.43h.252v1.5H8.38l-.0088-.2539a.567.567,0,0,1-.1943.2119.5254.5254,0,0,1-.2934.0811.7644.7644,0,0,1-.31-.0625.8069.8069,0,0,1-.4263-.4268.7949.7949,0,0,1,.166-.8633.7956.7956,0,0,1,.2483-.1682.7588.7588,0,0,1,.301-.06.58.58,0,0,1,.3129.083.6585.6585,0,0,1,.2154.2159ZM7.89,23.7251a.4416.4416,0,0,0,.2578-.0752.4688.4688,0,0,0,.1639-.2014.61.61,0,0,0,.05-.2793.6253.6253,0,0,0-.07-.2715.5126.5126,0,0,0-.1739-.1924.4565.4565,0,0,0-.2553-.0713.5072.5072,0,0,0-.27.0752.5283.5283,0,0,0-.1894.2012.5338.5338,0,0,0-.0625.28.5566.5566,0,0,0,.084.27.5791.5791,0,0,0,.1987.1934A.5279.5279,0,0,0,7.89,23.7251Z" transform="translate(0.001)"/>
  <path d="M10.3828,23.1324V23.93h-.252v-.7917a.55.55,0,0,0-.0586-.2539.4764.4764,0,0,0-.1587-.1836.398.398,0,0,0-.2265-.0683.3785.3785,0,0,0-.2212.0683.4709.4709,0,0,0-.1524.1836.5744.5744,0,0,0-.0556.2539v.792h-.252v-1.5h.252v.2315a.63.63,0,0,1,.2-.2012.5077.5077,0,0,1,.2666-.0723.593.593,0,0,1,.3427.1016.701.701,0,0,1,.231.2715A.846.846,0,0,1,10.3828,23.1324Z" transform="translate(0.001)"/>
  <path d="M11.9189,21.68h.252v2.25h-.252v-.2549a.6092.6092,0,0,1-.2056.2129.56.56,0,0,1-.3032.0811.7605.7605,0,0,1-.3056-.0615.8014.8014,0,0,1-.4219-.4219.761.761,0,0,1-.0615-.3057.769.769,0,0,1,.0615-.3066.7889.7889,0,0,1,.17-.252.8.8,0,0,1,.2515-.17A.7605.7605,0,0,1,11.41,22.39a.56.56,0,0,1,.3032.08.61.61,0,0,1,.2056.2138Zm-.5059,2.0449a.4494.4494,0,0,0,.2574-.0732.48.48,0,0,0,.1679-.1973.6641.6641,0,0,0,0-.5507.4859.4859,0,0,0-.169-.1973.4529.4529,0,0,0-.2559-.0723.5089.5089,0,0,0-.269.0733.5531.5531,0,0,0-.1929.1972.5418.5418,0,0,0-.0717.2754.5341.5341,0,0,0,.0732.2754.5647.5647,0,0,0,.1953.1963A.503.503,0,0,0,11.413,23.7251Z" transform="translate(0.001)"/>
  <path d="M13.2431,23.9693a.6936.6936,0,0,1-.3769-.1065.799.799,0,0,1-.3731-.6826.8093.8093,0,0,1,.0586-.3086.8284.8284,0,0,1,.1612-.2519.7568.7568,0,0,1,.2392-.17.72.72,0,0,1,.6685.0449.7964.7964,0,0,1,.2715.2861.817.817,0,0,1-.1187.957.7547.7547,0,0,1-.2383.17A.7.7,0,0,1,13.2431,23.9693Zm0-.252a.4515.4515,0,0,0,.2544-.0742.531.531,0,0,0,.1787-.1963.56.56,0,0,0,.065-.2666.554.554,0,0,0-.0664-.27.54.54,0,0,0-.18-.1973.47.47,0,0,0-.5054.001.5374.5374,0,0,0-.1782.1973.5783.5783,0,0,0,.0015.541.5258.5258,0,0,0,.1811.1933A.4586.4586,0,0,0,13.2431,23.7173Z" transform="translate(0.001)"/>
  <path d="M15.0244,23.93v-1.5h.2524v.2183a.7512.7512,0,0,1,.1616-.1768.3509.3509,0,0,1,.2178-.0664.5487.5487,0,0,1,.3067.085.6492.6492,0,0,1,.2128.2344.6225.6225,0,0,1,.2149-.2344.55.55,0,0,1,.3047-.085.5671.5671,0,0,1,.332.0977.6479.6479,0,0,1,.2207.2588.8012.8012,0,0,1,.08.3554v.8135h-.2539v-.8135a.557.557,0,0,0-.0449-.2314.4054.4054,0,0,0-.1309-.166.3278.3278,0,0,0-.2031-.0625.3489.3489,0,0,0-.2071.0625.4025.4025,0,0,0-.1367.166.5288.5288,0,0,0-.0508.2314v.8135h-.2518v-.8135A.53.53,0,0,0,16,22.8858a.4209.4209,0,0,0-.1387-.166.3431.3431,0,0,0-.2051-.0625.3113.3113,0,0,0-.1973.0664.4455.4455,0,0,0-.1342.1738.5765.5765,0,0,0-.0479.2363v.7969Z" transform="translate(0.001)"/>
  <path d="M18.3007,23.9693a.6936.6936,0,0,1-.3769-.1065.799.799,0,0,1-.3731-.6826.8093.8093,0,0,1,.0586-.3086.8284.8284,0,0,1,.1612-.2519.7526.7526,0,0,1,.2392-.17.7314.7314,0,0,1,.6026.0068.7072.7072,0,0,1,.2431.1894.81.81,0,0,1,.1514.2823.9062.9062,0,0,1,.0361.3437H17.8193a.5364.5364,0,0,0,.084.2266.4753.4753,0,0,0,.1689.1582.4636.4636,0,0,0,.2285.06.4463.4463,0,0,0,.2452-.07.5206.5206,0,0,0,.1767-.19l.2559.06a.78.78,0,0,1-.2715.3261A.6867.6867,0,0,1,18.3007,23.9693Zm-.4892-.8955H18.79a.4947.4947,0,0,0-.0811-.23.5324.5324,0,0,0-.1757-.167.46.46,0,0,0-.4629-.0019.5229.5229,0,0,0-.1739.166.5646.5646,0,0,0-.0846.2329Z" transform="translate(0.001)"/>
  <path d="M20.539,21.68h.252v2.25h-.252v-.2549a.6061.6061,0,0,1-.206.2129.5594.5594,0,0,1-.3028.0811.7605.7605,0,0,1-.3056-.0615.7967.7967,0,0,1-.4219-.4219.761.761,0,0,1-.0615-.3057.769.769,0,0,1,.0615-.3066.7977.7977,0,0,1,.17-.252.8079.8079,0,0,1,.252-.17A.7605.7605,0,0,1,20.03,22.39a.5589.5589,0,0,1,.3028.08.6087.6087,0,0,1,.206.2138Zm-.5058,2.0449a.4522.4522,0,0,0,.2578-.0732.4881.4881,0,0,0,.1679-.1973.6369.6369,0,0,0,.0586-.2744.6235.6235,0,0,0-.0595-.2763.49.49,0,0,0-.169-.1973.4518.4518,0,0,0-.2558-.0723.5121.5121,0,0,0-.27.0733.5563.5563,0,0,0-.1923.1972.5418.5418,0,0,0-.0723.2754.5243.5243,0,0,0,.0742.2754.5577.5577,0,0,0,.1943.1963A.506.506,0,0,0,20.0332,23.7251Z" transform="translate(0.001)"/>
  <path d="M21.331,22.1558a.1338.1338,0,0,1-.0986-.0391.1368.1368,0,0,1-.0018-.1935l.0018-.0018a.1443.1443,0,0,1,.1973,0,.1368.1368,0,0,1,.0018.1935l-.0018.0018A.1339.1339,0,0,1,21.331,22.1558Zm-.1279.2744h.2519v1.5h-.2519Z" transform="translate(0.001)"/>
  <path d="M23.1618,22.43h.2519v1.5h-.2529l-.009-.2539a.5623.5623,0,0,1-.1943.2119.5233.5233,0,0,1-.293.0811.7708.7708,0,0,1-.3105-.0625.808.808,0,0,1-.4258-.4268.7808.7808,0,0,1-.0615-.3105.7719.7719,0,0,1,.2275-.5528.8017.8017,0,0,1,.2476-.1682.7593.7593,0,0,1,.3017-.0606.58.58,0,0,1,.3125.083.6486.6486,0,0,1,.2149.2159ZM22.67,23.7251a.4434.4434,0,0,0,.2588-.0752.4824.4824,0,0,0,.164-.2011.6613.6613,0,0,0-.02-.5508.5092.5092,0,0,0-.1738-.1924.455.455,0,0,0-.2549-.0713.5062.5062,0,0,0-.27.0752.5321.5321,0,0,0-.2519.4815.5507.5507,0,0,0,.0839.27.5713.5713,0,0,0,.1993.1934.5229.5229,0,0,0,.2654.0707Z" transform="translate(0.001)"/>
  <path d="M25.164,23.1324V23.93h-.2522v-.7917a.55.55,0,0,0-.0586-.2539.4873.4873,0,0,0-.1592-.1836.4.4,0,0,0-.2266-.0683.38.38,0,0,0-.2216.0683.4709.4709,0,0,0-.1524.1836.5857.5857,0,0,0-.0547.2539v.792h-.2519v-1.5h.2519v.2315a.6163.6163,0,0,1,.2-.2012.504.504,0,0,1,.2656-.0723.5933.5933,0,0,1,.3428.1016.6976.6976,0,0,1,.2315.2715A.8389.8389,0,0,1,25.164,23.1324Z" transform="translate(0.001)"/>
  <path d="M26.3125,22.6822h-.3407l-.0009,1.248h-.252l.001-1.248h-.2581V22.43H25.72l-.001-.4707h.252l.0009.4707h.3409Z" transform="translate(0.001)"/>
  <path d="M27.2382,23.9693a.6936.6936,0,0,1-.3769-.1065.799.799,0,0,1-.3731-.6826.8093.8093,0,0,1,.0586-.3086.8284.8284,0,0,1,.1612-.2519.7526.7526,0,0,1,.2392-.17.7314.7314,0,0,1,.6026.0068.7072.7072,0,0,1,.2431.1894.81.81,0,0,1,.1514.2823.9062.9062,0,0,1,.0361.3437H26.7568a.5364.5364,0,0,0,.084.2266.4753.4753,0,0,0,.1689.1582.4636.4636,0,0,0,.2285.06.4463.4463,0,0,0,.2452-.07.5206.5206,0,0,0,.1767-.19l.2559.06a.78.78,0,0,1-.2715.3261A.6867.6867,0,0,1,27.2382,23.9693Zm-.4892-.8955h.9785a.4947.4947,0,0,0-.0811-.23.5324.5324,0,0,0-.1757-.167.46.46,0,0,0-.4629-.0019.5229.5229,0,0,0-.1739.166A.5646.5646,0,0,0,26.749,23.0738Z" transform="translate(0.001)"/>
  <path d="M5.75,26.2818H5.41L5.4086,27.53H5.1557l.0015-1.248H4.8994V26.03h.2578l-.0015-.4707h.2525L5.41,26.03h.34Z" transform="translate(0.001)"/>
  <path d="M6.9184,26.2785a.3711.3711,0,0,0-.081-.0332.3607.3607,0,0,0-.0948-.0118.3781.3781,0,0,0-.2212.0674.4678.4678,0,0,0-.1523.1826.5888.5888,0,0,0-.0552.2559v.79H6.0605v-1.5h.252v.2315a.6257.6257,0,0,1,.2006-.1992.4984.4984,0,0,1,.2657-.0723c.0332,0,.0644.001.0947.0039a.3523.3523,0,0,1,.0854.0186Z" transform="translate(0.001)"/>
  <path d="M8.3418,26.03h.2519v1.5H8.34l-.0088-.2539a.5677.5677,0,0,1-.1943.2119.5258.5258,0,0,1-.2935.0811.7627.7627,0,0,1-.31-.0625.8069.8069,0,0,1-.4263-.4268.7939.7939,0,0,1,.166-.8627.7954.7954,0,0,1,.248-.168.7608.7608,0,0,1,.3013-.0606.58.58,0,0,1,.313.083.6592.6592,0,0,1,.2153.2159ZM7.85,27.3248a.442.442,0,0,0,.2578-.0752.4692.4692,0,0,0,.164-.2012.61.61,0,0,0,.05-.2793.6253.6253,0,0,0-.07-.2715.5155.5155,0,0,0-.1738-.1924.4568.4568,0,0,0-.2554-.0713.5072.5072,0,0,0-.27.0752A.531.531,0,0,0,7.3,26.79a.5555.5555,0,0,0,.084.27.5786.5786,0,0,0,.1988.1934A.5276.5276,0,0,0,7.85,27.3248Z" transform="translate(0.001)"/>
  <path d="M10.3427,26.732V27.53h-.2519v-.792a.55.55,0,0,0-.0586-.2539A.4772.4772,0,0,0,9.8735,26.3a.3985.3985,0,0,0-.2266-.0683.3785.3785,0,0,0-.2212.0683.4706.4706,0,0,0-.1523.1836.5731.5731,0,0,0-.0557.2539v.792H8.9658v-1.5h.2519v.2315a.63.63,0,0,1,.2-.2012.5086.5086,0,0,1,.2666-.0723.5933.5933,0,0,1,.3428.1016.701.701,0,0,1,.231.2715A.8458.8458,0,0,1,10.3427,26.732Z" transform="translate(0.001)"/>
  <path d="M11.187,27.5585a.7888.7888,0,0,1-.2364-.0459A.66.66,0,0,1,10.75,27.4a.4249.4249,0,0,1-.1255-.164l.2163-.0928a.2493.2493,0,0,0,.081.0957.49.49,0,0,0,.1348.0723.4715.4715,0,0,0,.1543.0263.4481.4481,0,0,0,.1548-.0253.2825.2825,0,0,0,.1177-.0752.1774.1774,0,0,0,.0459-.1211.15.15,0,0,0-.05-.1182.3763.3763,0,0,0-.126-.0674q-.0762-.0249-.1538-.0469a1.7341,1.7341,0,0,1-.2759-.0937.51.51,0,0,1-.1914-.14.3314.3314,0,0,1-.07-.2167.3907.3907,0,0,1,.0771-.2413.5057.5057,0,0,1,.2036-.1572.66.66,0,0,1,.27-.0556.6965.6965,0,0,1,.331.0781.517.517,0,0,1,.2236.2109l-.2026.1192a.2625.2625,0,0,0-.0776-.0957.4388.4388,0,0,0-.2583-.0909.47.47,0,0,0-.1626.0225.2876.2876,0,0,0-.1216.0771.1894.1894,0,0,0-.0459.1289.1361.1361,0,0,0,.0488.1133.3691.3691,0,0,0,.1275.0625c.0527.0157.11.0332.1718.0537a1.97,1.97,0,0,1,.2549.1.5765.5765,0,0,1,.1914.1426.3123.3123,0,0,1,.0713.2119.3754.3754,0,0,1-.0825.2413.5246.5246,0,0,1-.2139.1562A.66.66,0,0,1,11.187,27.5585Z" transform="translate(0.001)"/>
  <path d="M12.42,25.66v.37h.4394v.252H12.42V27.53h-.252v-1.248h-.1933V26.03h.1933v-.37a.4.4,0,0,1,.0562-.21.4228.4228,0,0,1,.1514-.1495.4.4,0,0,1,.2094-.0566.4186.4186,0,0,1,.3047.1338l-.18.1787a.14.14,0,0,0-.0547-.0449.1742.1742,0,0,0-.07-.0156.1624.1624,0,0,0-.1162.0478A.1579.1579,0,0,0,12.42,25.66Z" transform="translate(0.001)"/>
  <path d="M13.771,27.5685a.694.694,0,0,1-.377-.1065.819.819,0,0,1-.3144-.9912.8251.8251,0,0,1,.1611-.2519.7568.7568,0,0,1,.2392-.17.7314.7314,0,0,1,.6026.0068.71.71,0,0,1,.2427.1895.8141.8141,0,0,1,.1518.2822.9271.9271,0,0,1,.0366.3437H13.29a.5451.5451,0,0,0,.084.2266.4753.4753,0,0,0,.1689.1582.4627.4627,0,0,0,.2286.0605.4424.4424,0,0,0,.2446-.07.5163.5163,0,0,0,.1772-.19l.2564.06a.7824.7824,0,0,1-.2715.3261A.69.69,0,0,1,13.771,27.5685Zm-.4888-.8955h.978a.5006.5006,0,0,0-.081-.23.5328.5328,0,0,0-.1758-.167.46.46,0,0,0-.4634-.0019.5259.5259,0,0,0-.1733.166.5435.5435,0,0,0-.0849.2333Z" transform="translate(0.001)"/>
  <path d="M15.6709,26.2785a.37.37,0,0,0-.0811-.0332.36.36,0,0,0-.0947-.0118.38.38,0,0,0-.2222.0674.4671.4671,0,0,0-.1518.1826.5874.5874,0,0,0-.0552.2559v.79h-.2534v-1.5h.2519v.2315a.62.62,0,0,1,.2007-.1992.4991.4991,0,0,1,.2661-.0723c.0332,0,.0645.001.0947.0039a.3348.3348,0,0,1,.085.0186Z" transform="translate(0.001)"/>
  <path d="M16.5312,27.5685a.6928.6928,0,0,1-.3769-.1065.819.819,0,0,1-.3145-.9912.83.83,0,0,1,.1611-.2519.753.753,0,0,1,.2393-.17.7166.7166,0,0,1,.8457.1963.8115.8115,0,0,1,.1514.2822.9062.9062,0,0,1,.0361.3437H16.05a.5364.5364,0,0,0,.084.2266.4753.4753,0,0,0,.1689.1582.4623.4623,0,0,0,.2285.0605.4457.4457,0,0,0,.2451-.07.5184.5184,0,0,0,.1768-.19l.2558.06a.7787.7787,0,0,1-.2714.3261A.6874.6874,0,0,1,16.5312,27.5685Zm-.4892-.8955h.9785a.4958.4958,0,0,0-.0811-.23.5328.5328,0,0,0-.1758-.167.46.46,0,0,0-.4629-.0019.5235.5235,0,0,0-.1738.166.5638.5638,0,0,0-.0851.2333Z" transform="translate(0.001)"/>
  <path d="M18.92,26.732V27.53h-.252v-.792a.55.55,0,0,0-.0586-.2539A.4854.4854,0,0,0,18.45,26.3a.4.4,0,0,0-.2266-.0683.38.38,0,0,0-.2217.0683.4706.4706,0,0,0-.1523.1836.5857.5857,0,0,0-.0547.2539v.792h-.252v-1.5h.252v.2315a.6163.6163,0,0,1,.2-.2012.5049.5049,0,0,1,.2656-.0723.5933.5933,0,0,1,.3428.1016.6974.6974,0,0,1,.2314.2715A.8386.8386,0,0,1,18.92,26.732Z" transform="translate(0.001)"/>
  <path d="M20.2818,27.1333l.2246.1221a.7669.7669,0,0,1-.2588.2276.7178.7178,0,0,1-.7168-.0206.819.819,0,0,1-.3144-.9912.8251.8251,0,0,1,.1611-.2519.7519.7519,0,0,1,.2393-.17.7165.7165,0,0,1,.631.0244.75.75,0,0,1,.2588.23l-.2246.1211a.5219.5219,0,0,0-.1709-.1368.4586.4586,0,0,0-.2031-.0478.4512.4512,0,0,0-.253.0742.5355.5355,0,0,0-.1787.1973.5614.5614,0,0,0-.0664.2685.544.544,0,0,0,.0674.2676.5345.5345,0,0,0,.18.1963.4621.4621,0,0,0,.46.0225A.5362.5362,0,0,0,20.2818,27.1333Z" transform="translate(0.001)"/>
  <path d="M20.9111,25.7554a.1341.1341,0,0,1-.0986-.039.1367.1367,0,0,1-.0021-.1933l.0021-.0021a.1441.1441,0,0,1,.1972,0,.1368.1368,0,0,1,.0018.1936l-.0018.0018A.1341.1341,0,0,1,20.9111,25.7554Zm-.1279.2744h.2519v1.5h-.2519Z" transform="translate(0.001)"/>
  <path d="M22.7418,26.03h.2519v1.5h-.2529l-.01-.2539a.5638.5638,0,0,1-.1943.2119.5225.5225,0,0,1-.293.0811.7708.7708,0,0,1-.3105-.0625.808.808,0,0,1-.4258-.4268.78.78,0,0,1-.0615-.31.7718.7718,0,0,1,.2275-.5527.8012.8012,0,0,1,.248-.168.7594.7594,0,0,1,.3018-.0606.58.58,0,0,1,.3125.083.6492.6492,0,0,1,.2148.2159Zm-.4922,1.295a.4449.4449,0,0,0,.2588-.0752.4833.4833,0,0,0,.164-.2012.6614.6614,0,0,0-.02-.5508.5107.5107,0,0,0-.1738-.1924.4552.4552,0,0,0-.2549-.0713.5054.5054,0,0,0-.27.0752.5321.5321,0,0,0-.252.4815.551.551,0,0,0,.084.2695.5719.5719,0,0,0,.1992.1934.5239.5239,0,0,0,.2656.0713Z" transform="translate(0.001)"/>
  <g>
    <path d="M2.4355,20.3594V18.5713H2.185l.0855-.3115h.477v2.1Z" transform="translate(0.001)"/>
    <path d="M3.8916,20.3984a.6653.6653,0,0,1-.335-.0849.81.81,0,0,1-.2573-.2344,1.133,1.133,0,0,1-.165-.3477,1.5879,1.5879,0,0,1,0-.8447,1.1226,1.1226,0,0,1,.165-.3476.8054.8054,0,0,1,.2573-.2334.6987.6987,0,0,1,.668,0,.7817.7817,0,0,1,.2559.2334,1.13,1.13,0,0,1,.1626.3476,1.5905,1.5905,0,0,1,0,.8447,1.1406,1.1406,0,0,1-.1626.3477.786.786,0,0,1-.2559.2344A.6628.6628,0,0,1,3.8916,20.3984Zm0-.3125a.4026.4026,0,0,0,.2876-.1084.6627.6627,0,0,0,.1714-.2861,1.3193,1.3193,0,0,0-.002-.7744.6483.6483,0,0,0-.1743-.28.4049.4049,0,0,0-.2827-.1045.42.42,0,0,0-.2315.0635.4982.4982,0,0,0-.1621.1729.8747.8747,0,0,0-.0962.249,1.2976,1.2976,0,0,0-.0322.292,1.2024,1.2024,0,0,0,.0586.3818.6687.6687,0,0,0,.1748.2861A.4074.4074,0,0,0,3.8916,20.0859Z" transform="translate(0.001)"/>
    <path d="M5.3291,19.14a.4077.4077,0,0,1-.21-.0556.4347.4347,0,0,1-.1523-.1514.4251.4251,0,0,1,.0009-.4258.4349.4349,0,0,1,.1529-.1494.414.414,0,0,1,.208-.0547.4061.4061,0,0,1,.21.0567.4335.4335,0,0,1,.1514.15.422.422,0,0,1-.0005.4248.4305.4305,0,0,1-.1533.15A.4035.4035,0,0,1,5.3291,19.14Zm-.2534,1.22,1.2119-2.1h.36l-1.2119,2.1Zm.2534-1.44a.1919.1919,0,0,0,.1411-.0576.2042.2042,0,0,0,0-.2822.2.2,0,0,0-.2812,0,.1987.1987,0,0,0,.14.34ZM6.397,20.3193a.3981.3981,0,0,1-.2124-.0595.4541.4541,0,0,1-.1514-.1543.4111.4111,0,0,1,.0024-.419.4394.4394,0,0,1,.1538-.1513.4048.4048,0,0,1,.2076-.0567.395.395,0,0,1,.2129.0586.4422.4422,0,0,1,.15.1543.4128.4128,0,0,1,.0552.207.4061.4061,0,0,1-.0561.211.4306.4306,0,0,1-.1514.1523A.4025.4025,0,0,1,6.397,20.3193Zm0-.2207a.2.2,0,0,0,0-.3994.1941.1941,0,0,0-.1416.0586.1968.1968,0,0,0,0,.2822A.1937.1937,0,0,0,6.397,20.0986Z" transform="translate(0.001)"/>
  </g>
</svg>
