<svg id="Capa_1" data-name="Capa 1" xmlns="http://www.w3.org/2000/svg" viewBox="0 0 27.6865 24.6788">
  <defs>
    <style>
      .cls-1 {
        fill: #1a1a1a;
        fill-rule: evenodd;
      }

      .cls-2 {
        fill: none;
        stroke: #1a1a1a;
        stroke-width: 0.26px;
      }
    </style>
  </defs>
  <path class="cls-1" d="M18.265,9.2569a.39.39,0,0,0-.27-.45.4.4,0,1,0-.13.78h.07A.37.37,0,0,0,18.265,9.2569Zm.55,0a.93.93,0,1,0-1,.88h.06a.91.91,0,0,0,.94-.87h0Z" transform="translate(-1.9967 -0.0069)"/>
  <path class="cls-1" d="M14.865,9.2569a.3946.3946,0,0,0-.78-.12h0a.39.39,0,0,0,.3209.4486l.0091.0014h.06A.37.37,0,0,0,14.865,9.2569Zm.54,0a.92.92,0,0,0-.8352-.9976l-.0348-.0024a.9316.9316,0,0,0-.11,1.86h.05a.91.91,0,0,0,.95-.8683l0-.0017h0Z" transform="translate(-1.9967 -0.0069)"/>
  <path class="cls-1" d="M16.445,5.0769h-3v3.66h.34a.86.86,0,0,0-.19.53h-.15a.53.53,0,0,1-.53-.53v-3.66a.53.53,0,0,1,.53-.53h3a.54.54,0,0,1,.54.53v.75h.87a.56.56,0,0,1,.41.19l.92,1a.59.59,0,0,1,.13.36v1.36a.53.53,0,0,1-.51.53.82.82,0,0,0-.21-.53h.19v-1.13h-1.79v1.13h.17a.87.87,0,0,0-.2.53h-1.57a.81.81,0,0,0-.2-.53h1.26v-3.66Zm2,2h-1.45v-.7h.87Z" transform="translate(-1.9967 -0.0069)"/>
  <rect class="cls-2" x="6.7683" y="0.13" width="14.15" height="14.15" rx="1.61"/>
  <path d="M1.9967,20.336v-2.1H2.734a.5791.5791,0,0,1,.3047.0821.6053.6053,0,0,1,.2159.2226.6632.6632,0,0,1,.0195.5889.5851.5851,0,0,1-.1651.208.5784.5784,0,0,1-.2363.1142l.5108.8838H3.0924l-.5-.8623H2.2477v.8623Zm.251-1.1142H2.71a.3523.3523,0,0,0,.1866-.0508.3858.3858,0,0,0,0-.6631.3608.3608,0,0,0-.1866-.05H2.2477Z" transform="translate(-1.9967 -0.0069)"/>
  <path d="M4.3571,20.3751a.6947.6947,0,0,1-.377-.1064.8.8,0,0,1-.373-.6827.807.807,0,0,1,.0586-.3086.8285.8285,0,0,1,.1611-.2519.7531.7531,0,0,1,.2393-.17.7167.7167,0,0,1,.8457.1963.81.81,0,0,1,.1513.2822.9088.9088,0,0,1,.0362.3437H3.8756a.5391.5391,0,0,0,.084.2266.4764.4764,0,0,0,.169.1582.4624.4624,0,0,0,.2285.0605.4457.4457,0,0,0,.2451-.07.52.52,0,0,0,.1768-.19l.2558.06a.778.778,0,0,1-.2715.3261A.6865.6865,0,0,1,4.3571,20.3751ZM3.8678,19.48h.9785a.4955.4955,0,0,0-.081-.2305.5326.5326,0,0,0-.1758-.167.46.46,0,0,0-.4629-.0019.5229.5229,0,0,0-.1738.166A.566.566,0,0,0,3.8678,19.48Z" transform="translate(-1.9967 -0.0069)"/>
  <path d="M6.61,18.836h.252v1.5H6.609l-.01-.2539a.5637.5637,0,0,1-.1944.2119.522.522,0,0,1-.2929.0811.7707.7707,0,0,1-.3106-.0625.808.808,0,0,1-.4258-.4268.78.78,0,0,1-.0615-.3105.7882.7882,0,0,1,.06-.3027.78.78,0,0,1,.168-.25.8.8,0,0,1,.248-.168.7613.7613,0,0,1,.3018-.0606.5792.5792,0,0,1,.3125.0831.6479.6479,0,0,1,.2148.2158Zm-.4922,1.295a.4442.4442,0,0,0,.2588-.0752.4834.4834,0,0,0,.1641-.2012.6614.6614,0,0,0-.0205-.5508.51.51,0,0,0-.1739-.1924.4554.4554,0,0,0-.2548-.0713.506.506,0,0,0-.2705.0752.532.532,0,0,0-.252.4815.5506.5506,0,0,0,.084.2695.5726.5726,0,0,0,.1992.1934A.5238.5238,0,0,0,6.1178,20.131Z" transform="translate(-1.9967 -0.0069)"/>
  <path d="M7.29,20.336v-2.25h.251v2.25Z" transform="translate(-1.9967 -0.0069)"/>
  <path d="M8.0954,18.5616a.1343.1343,0,0,1-.0987-.039.1369.1369,0,0,1,0-.1954.1443.1443,0,0,1,.1973,0,.1369.1369,0,0,1,0,.1954A.1343.1343,0,0,1,8.0954,18.5616Zm-.128.2744h.252v1.5h-.252Z" transform="translate(-1.9967 -0.0069)"/>
  <path d="M9.9684,19.088l-.9209.9961h.9209v.2519H8.6872v-.2519L9.61,19.088H8.6872v-.252H9.9684Z" transform="translate(-1.9967 -0.0069)"/>
  <path d="M11.5573,18.836h.2519v1.5h-.2529l-.01-.2539a.5626.5626,0,0,1-.1943.2119.5223.5223,0,0,1-.293.0811.7706.7706,0,0,1-.3105-.0625.808.808,0,0,1-.4258-.4268.78.78,0,0,1-.0615-.3105.7882.7882,0,0,1,.06-.3027.78.78,0,0,1,.1679-.25.8007.8007,0,0,1,.2481-.168.7608.7608,0,0,1,.3017-.0606.5787.5787,0,0,1,.3125.0831.6473.6473,0,0,1,.2149.2158Zm-.4922,1.295a.4444.4444,0,0,0,.2588-.0752.4824.4824,0,0,0,.164-.2012.66.66,0,0,0-.0205-.5508.5091.5091,0,0,0-.1738-.1924.4555.4555,0,0,0-.2549-.0713.5062.5062,0,0,0-.2705.0752.5322.5322,0,0,0-.2519.4815.5506.5506,0,0,0,.084.2695A.5709.5709,0,0,0,10.8,20.06.5235.5235,0,0,0,11.0651,20.131Z" transform="translate(-1.9967 -0.0069)"/>
  <path d="M12.1686,20.336v-1.5h.252v.2178a.7514.7514,0,0,1,.1621-.1767.3471.3471,0,0,1,.2168-.0665.5511.5511,0,0,1,.3076.085.6473.6473,0,0,1,.2119.2344.6317.6317,0,0,1,.2148-.2344.5515.5515,0,0,1,.3057-.085.5687.5687,0,0,1,.332.0977.6552.6552,0,0,1,.2207.2588.8.8,0,0,1,.0791.3555v.8134h-.2529v-.8134a.5722.5722,0,0,0-.0449-.2315.4044.4044,0,0,0-.1309-.166.33.33,0,0,0-.2031-.0625.3463.3463,0,0,0-.207.0625.4032.4032,0,0,0-.1377.166.5293.5293,0,0,0-.05.2315v.8134h-.252v-.8134a.5293.5293,0,0,0-.05-.2315.4191.4191,0,0,0-.1377-.166.3473.3473,0,0,0-.206-.0625.31.31,0,0,0-.1963.0664.4446.4446,0,0,0-.1338.1738.5633.5633,0,0,0-.0488.2364v.7968Z" transform="translate(-1.9967 -0.0069)"/>
  <path d="M15.445,20.3751a.6947.6947,0,0,1-.377-.1064.799.799,0,0,1-.373-.6827.807.807,0,0,1,.0586-.3086.8266.8266,0,0,1,.1611-.2519.752.752,0,0,1,.2393-.17.701.701,0,0,1,.291-.0616.6933.6933,0,0,1,.3769.1065.819.819,0,0,1,.3145.9912.82.82,0,0,1-.1611.252.7506.7506,0,0,1-.2383.17A.6991.6991,0,0,1,15.445,20.3751Zm0-.252a.4556.4556,0,0,0,.2549-.0742.5292.5292,0,0,0,.1777-.1963.5781.5781,0,0,0-.001-.5361.54.54,0,0,0-.18-.1973.4527.4527,0,0,0-.2519-.0732.4443.4443,0,0,0-.2529.0742.5365.5365,0,0,0-.1788.1973.58.58,0,0,0,.001.541.5239.5239,0,0,0,.1817.1934A.4587.4587,0,0,0,15.445,20.1231Z" transform="translate(-1.9967 -0.0069)"/>
  <path d="M16.9792,20.3644a.79.79,0,0,1-.2364-.0459.6639.6639,0,0,1-.2011-.1123.4354.4354,0,0,1-.125-.1641l.2158-.0928a.26.26,0,0,0,.081.0957.4868.4868,0,0,0,.1358.0723.4652.4652,0,0,0,.1543.0264.447.447,0,0,0,.1543-.0254.2892.2892,0,0,0,.1181-.0752.1758.1758,0,0,0,.045-.1211.1493.1493,0,0,0-.05-.1182.369.369,0,0,0-.126-.0674c-.0508-.0166-.1016-.0322-.1543-.0468a1.747,1.747,0,0,1-.2754-.0938.5152.5152,0,0,1-.1914-.14.3284.3284,0,0,1-.0694-.2168.3873.3873,0,0,1,.0772-.2413.4969.4969,0,0,1,.2031-.1572.66.66,0,0,1,.27-.0556.7019.7019,0,0,1,.332.0781.526.526,0,0,1,.2236.2109l-.2031.1192a.2583.2583,0,0,0-.0781-.0957.4167.4167,0,0,0-.12-.0655.4466.4466,0,0,0-.1376-.0254.4639.4639,0,0,0-.1622.0225.283.283,0,0,0-.122.0771.1894.1894,0,0,0-.0459.129.1361.1361,0,0,0,.0488.1132.3628.3628,0,0,0,.1279.0625c.0518.0157.1094.0332.1719.0537a2.006,2.006,0,0,1,.2549.1.58.58,0,0,1,.1914.1425.3149.3149,0,0,1,.0713.2119.3788.3788,0,0,1-.083.2413.5213.5213,0,0,1-.2139.1562A.6578.6578,0,0,1,16.9792,20.3644Z" transform="translate(-1.9967 -0.0069)"/>
  <path d="M19.2936,20.3751a.6941.6941,0,0,1-.3769-.1064.7994.7994,0,0,1-.3731-.6827.807.807,0,0,1,.0586-.3086.83.83,0,0,1,.1611-.2519.7531.7531,0,0,1,.2393-.17.7167.7167,0,0,1,.8457.1963A.81.81,0,0,1,20,19.3341a.9068.9068,0,0,1,.0361.3437H18.8122a.5364.5364,0,0,0,.084.2266.4753.4753,0,0,0,.1689.1582.4627.4627,0,0,0,.2285.0605.4455.4455,0,0,0,.2451-.07.5191.5191,0,0,0,.1768-.19l.2558.06a.7778.7778,0,0,1-.2714.3261A.687.687,0,0,1,19.2936,20.3751Zm-.4892-.8955h.9785a.4956.4956,0,0,0-.0811-.2305.5326.5326,0,0,0-.1758-.167.46.46,0,0,0-.4629-.0019.5229.5229,0,0,0-.1738.166A.5644.5644,0,0,0,18.8044,19.48Z" transform="translate(-1.9967 -0.0069)"/>
  <path d="M21.6823,19.5382v.7978H21.43v-.792a.549.549,0,0,0-.0586-.2539.4858.4858,0,0,0-.1591-.1836.4.4,0,0,0-.2266-.0683.38.38,0,0,0-.2217.0683.4709.4709,0,0,0-.1523.1836.5855.5855,0,0,0-.0547.2539v.792h-.252v-1.5h.252v.2315a.615.615,0,0,1,.2-.2012.5046.5046,0,0,1,.2656-.0723.5933.5933,0,0,1,.3428.1016.6973.6973,0,0,1,.2314.2715A.8387.8387,0,0,1,21.6823,19.5382Z" transform="translate(-1.9967 -0.0069)"/>
  <path d="M22.7926,20.336H22.47l-.5479-1.5029h.2686l.4394,1.21.4395-1.21h.2685Z" transform="translate(-1.9967 -0.0069)"/>
  <path d="M23.6237,18.836h.2519v1.5h-.2519Zm.0918-.207.12-.4316h.252l-.2471.4316Z" transform="translate(-1.9967 -0.0069)"/>
  <path d="M25.02,20.3751a.6947.6947,0,0,1-.377-.1064.799.799,0,0,1-.373-.6827.807.807,0,0,1,.0586-.3086.8266.8266,0,0,1,.1611-.2519.752.752,0,0,1,.2393-.17.701.701,0,0,1,.291-.0616.6936.6936,0,0,1,.3769.1065.819.819,0,0,1,.3145.9912.8185.8185,0,0,1-.1612.252.749.749,0,0,1-.2382.17A.7.7,0,0,1,25.02,20.3751Zm0-.252a.4556.4556,0,0,0,.2549-.0742.5292.5292,0,0,0,.1777-.1963.5781.5781,0,0,0-.001-.5361.54.54,0,0,0-.18-.1973.4529.4529,0,0,0-.2519-.0732.4449.4449,0,0,0-.253.0742.5372.5372,0,0,0-.1787.1973.58.58,0,0,0,.001.541.5239.5239,0,0,0,.1817.1934A.4587.4587,0,0,0,25.02,20.1231Z" transform="translate(-1.9967 -0.0069)"/>
  <path d="M26.5544,20.3644a.79.79,0,0,1-.2364-.0459.6639.6639,0,0,1-.2011-.1123.4354.4354,0,0,1-.125-.1641l.2158-.0928a.26.26,0,0,0,.081.0957.4868.4868,0,0,0,.1358.0723.4652.4652,0,0,0,.1543.0264.447.447,0,0,0,.1543-.0254.2892.2892,0,0,0,.1181-.0752.1758.1758,0,0,0,.045-.1211.1491.1491,0,0,0-.05-.1182.3676.3676,0,0,0-.1259-.0674c-.0508-.0166-.1016-.0322-.1543-.0468a1.747,1.747,0,0,1-.2754-.0938.5152.5152,0,0,1-.1914-.14.3284.3284,0,0,1-.0694-.2168.3873.3873,0,0,1,.0772-.2413.4969.4969,0,0,1,.2031-.1572.6594.6594,0,0,1,.27-.0556.702.702,0,0,1,.3321.0781.526.526,0,0,1,.2236.2109l-.2031.1192a.2583.2583,0,0,0-.0781-.0957.4167.4167,0,0,0-.12-.0655.4467.4467,0,0,0-.1377-.0254.4636.4636,0,0,0-.1621.0225.283.283,0,0,0-.122.0771.1894.1894,0,0,0-.0459.129.1361.1361,0,0,0,.0488.1132.3628.3628,0,0,0,.1279.0625c.0518.0157.1094.0332.1719.0537a2.006,2.006,0,0,1,.2549.1.58.58,0,0,1,.1914.1425.3149.3149,0,0,1,.0713.2119.3788.3788,0,0,1-.083.2413.5213.5213,0,0,1-.2139.1562A.6578.6578,0,0,1,26.5544,20.3644Z" transform="translate(-1.9967 -0.0069)"/>
  <path d="M29.4313,18.836h.252v1.5H29.43l-.01-.2539a.5637.5637,0,0,1-.1944.2119.5222.5222,0,0,1-.2929.0811.7707.7707,0,0,1-.3106-.0625.808.808,0,0,1-.4258-.4268.78.78,0,0,1-.0615-.3105.7729.7729,0,0,1,.2275-.5527.8007.8007,0,0,1,.2481-.168.7609.7609,0,0,1,.3018-.0606.5792.5792,0,0,1,.3125.0831.6479.6479,0,0,1,.2148.2158Zm-.4922,1.295a.4444.4444,0,0,0,.2588-.0752.4834.4834,0,0,0,.1641-.2012.6614.6614,0,0,0-.02-.5508.51.51,0,0,0-.1739-.1924.4554.4554,0,0,0-.2548-.0713.5063.5063,0,0,0-.2706.0752.5322.5322,0,0,0-.2519.4815.5506.5506,0,0,0,.084.2695.5726.5726,0,0,0,.1992.1934A.5238.5238,0,0,0,28.9391,20.131Z" transform="translate(-1.9967 -0.0069)"/>
  <path d="M8.7682,22.6876H8.4274l-.001,1.248H8.1745l.0009-1.248H7.9176v-.252h.2578l-.0009-.4707h.2519l.001.4707h.3408Z" transform="translate(-1.9967 -0.0069)"/>
  <path d="M9.694,23.9747a.6933.6933,0,0,1-.3769-.1064.7994.7994,0,0,1-.3731-.6827.8065.8065,0,0,1,.0586-.3085.83.83,0,0,1,.1611-.252.7531.7531,0,0,1,.2393-.17.7012.7012,0,0,1,.291-.0615.6938.6938,0,0,1,.377.1064.8191.8191,0,0,1,.3144.9912.82.82,0,0,1-.1611.252.7506.7506,0,0,1-.2383.17A.6991.6991,0,0,1,9.694,23.9747Zm0-.2519a.4554.4554,0,0,0,.2549-.0743.5283.5283,0,0,0,.1777-.1963.5773.5773,0,0,0-.001-.5361.5393.5393,0,0,0-.18-.1973.453.453,0,0,0-.252-.0732.4445.4445,0,0,0-.2529.0742.5354.5354,0,0,0-.1787.1973.5807.5807,0,0,0,.0009.541.5247.5247,0,0,0,.1817.1934A.4593.4593,0,0,0,9.694,23.7228Z" transform="translate(-1.9967 -0.0069)"/>
  <path d="M11.9333,21.6856h.2519v2.25h-.2519v-.2548a.6073.6073,0,0,1-.2061.2129.5586.5586,0,0,1-.3027.081.76.76,0,0,1-.3057-.0615.7965.7965,0,0,1-.4219-.4219.76.76,0,0,1-.0615-.3057.7682.7682,0,0,1,.0615-.3066.7948.7948,0,0,1,.17-.2519.8062.8062,0,0,1,.2519-.17.76.76,0,0,1,.3057-.0615.5582.5582,0,0,1,.3027.08.6093.6093,0,0,1,.2061.2139Zm-.5059,2.045a.451.451,0,0,0,.2578-.0733.4878.4878,0,0,0,.168-.1972.6384.6384,0,0,0,.0586-.2745.6239.6239,0,0,0-.06-.2763.49.49,0,0,0-.1689-.1973.4529.4529,0,0,0-.2559-.0723.5125.5125,0,0,0-.27.0733.5546.5546,0,0,0-.1924.1973.5413.5413,0,0,0-.0723.2753.5247.5247,0,0,0,.0742.2754.558.558,0,0,0,.1944.1963A.5053.5053,0,0,0,11.4274,23.7306Z" transform="translate(-1.9967 -0.0069)"/>
  <path d="M13.2575,23.9747a.6938.6938,0,0,1-.377-.1064.799.799,0,0,1-.373-.6827.8065.8065,0,0,1,.0586-.3085.8259.8259,0,0,1,.1611-.252.752.752,0,0,1,.2393-.17.7009.7009,0,0,1,.291-.0615.6933.6933,0,0,1,.3769.1064.819.819,0,0,1,.3145.9912.82.82,0,0,1-.1611.252.7506.7506,0,0,1-.2383.17A.6991.6991,0,0,1,13.2575,23.9747Zm0-.2519a.4557.4557,0,0,0,.2549-.0743.5292.5292,0,0,0,.1777-.1963.5781.5781,0,0,0-.001-.5361.54.54,0,0,0-.18-.1973.4527.4527,0,0,0-.2519-.0732.4443.4443,0,0,0-.2529.0742.5365.5365,0,0,0-.1788.1973.58.58,0,0,0,.001.541.5239.5239,0,0,0,.1817.1934A.4588.4588,0,0,0,13.2575,23.7228Z" transform="translate(-1.9967 -0.0069)"/>
  <path d="M15.7409,23.9747a.6938.6938,0,0,1-.377-.1064.799.799,0,0,1-.373-.6827.8065.8065,0,0,1,.0586-.3085.8259.8259,0,0,1,.1611-.252.752.752,0,0,1,.2393-.17.7167.7167,0,0,1,.8457.1963.8114.8114,0,0,1,.1513.2822.9088.9088,0,0,1,.0362.3437H15.2594a.5391.5391,0,0,0,.084.2266.4764.4764,0,0,0,.169.1582.4635.4635,0,0,0,.2285.0606.4458.4458,0,0,0,.2451-.07.52.52,0,0,0,.1768-.19l.2558.06a.78.78,0,0,1-.2715.3262A.6871.6871,0,0,1,15.7409,23.9747Zm-.4893-.8955H16.23a.4955.4955,0,0,0-.081-.23.5326.5326,0,0,0-.1758-.167A.46.46,0,0,0,15.51,22.68a.5229.5229,0,0,0-.1738.166A.5646.5646,0,0,0,15.2516,23.0792Z" transform="translate(-1.9967 -0.0069)"/>
  <path d="M16.8,23.9356v-2.25h.251v2.25Z" transform="translate(-1.9967 -0.0069)"/>
  <path d="M18.4919,24.6856H18.24v-2.25h.252v.2569a.6286.6286,0,0,1,.2041-.2139A.5494.5494,0,0,1,19,22.3966a.7713.7713,0,0,1,.3066.0615.7919.7919,0,0,1,.42.4219.76.76,0,0,1,.0616.3056.7732.7732,0,0,1-.0616.3077.79.79,0,0,1-.42.4228A.7713.7713,0,0,1,19,23.9776a.5494.5494,0,0,1-.3037-.082.62.62,0,0,1-.2041-.2139Zm.5039-2.0449a.45.45,0,0,0-.2549.0742.4847.4847,0,0,0-.168.1963.6617.6617,0,0,0,0,.5489.4758.4758,0,0,0,.168.1982.4443.4443,0,0,0,.2549.0732.5164.5164,0,0,0,.2675-.0722.5646.5646,0,0,0,.1954-.1973.5558.5558,0,0,0,.0009-.55.5434.5434,0,0,0-.1933-.1973A.5144.5144,0,0,0,18.9958,22.6407Z" transform="translate(-1.9967 -0.0069)"/>
  <path d="M21.3219,22.4356h.252v1.5H21.321l-.01-.2539a.5645.5645,0,0,1-.1943.212.5233.5233,0,0,1-.293.081.7707.7707,0,0,1-.3106-.0625.8076.8076,0,0,1-.4257-.4267.7792.7792,0,0,1-.0616-.3106.7724.7724,0,0,1,.2276-.5527.8015.8015,0,0,1,.248-.168.7616.7616,0,0,1,.3018-.0605.5791.5791,0,0,1,.3125.083.6479.6479,0,0,1,.2148.2158Zm-.4922,1.295a.4442.4442,0,0,0,.2588-.0752.4834.4834,0,0,0,.1641-.2012.6614.6614,0,0,0-.0205-.5508.5107.5107,0,0,0-.1738-.1924.4557.4557,0,0,0-.2549-.0713.506.506,0,0,0-.27.0752.532.532,0,0,0-.252.4815.5506.5506,0,0,0,.084.27.5726.5726,0,0,0,.1992.1934A.5228.5228,0,0,0,20.83,23.7306Z" transform="translate(-1.9967 -0.0069)"/>
  <path d="M21.9762,22.4356h.252v1.5h-.252Zm.0918-.207.12-.4316h.252l-.2471.4316Z" transform="translate(-1.9967 -0.0069)"/>
  <path d="M23.1715,23.964a.79.79,0,0,1-.2363-.0459.6644.6644,0,0,1-.2012-.1123.4374.4374,0,0,1-.125-.1641l.2159-.0928a.2588.2588,0,0,0,.081.0957.4868.4868,0,0,0,.1358.0723.4648.4648,0,0,0,.1543.0264.445.445,0,0,0,.1543-.0254.2892.2892,0,0,0,.1181-.0752.1755.1755,0,0,0,.0449-.1211.1493.1493,0,0,0-.05-.1182.3685.3685,0,0,0-.1259-.0674c-.0508-.0166-.1016-.0322-.1543-.0468a1.747,1.747,0,0,1-.2754-.0938.5144.5144,0,0,1-.1914-.14.3282.3282,0,0,1-.0694-.2168.3868.3868,0,0,1,.0772-.2412.4963.4963,0,0,1,.2031-.1573.6594.6594,0,0,1,.27-.0556.7032.7032,0,0,1,.3321.0781.526.526,0,0,1,.2236.2109l-.2031.1192a.2577.2577,0,0,0-.0782-.0957.4148.4148,0,0,0-.12-.0655.4467.4467,0,0,0-.1377-.0254.4636.4636,0,0,0-.1621.0225.2816.2816,0,0,0-.122.0772.189.189,0,0,0-.0459.1289.1359.1359,0,0,0,.0488.1132.3628.3628,0,0,0,.1279.0625c.0518.0157.1094.0332.1719.0538a2.0059,2.0059,0,0,1,.2549.1.58.58,0,0,1,.1914.1425.3157.3157,0,0,1,.0713.212.3791.3791,0,0,1-.083.2412.5213.5213,0,0,1-.2139.1562A.658.658,0,0,1,23.1715,23.964Z" transform="translate(-1.9967 -0.0069)"/>
</svg>
