<svg id="Capa_1" data-name="Capa 1" xmlns="http://www.w3.org/2000/svg" viewBox="0 0 679.55 418.2"><defs><style>.cls-1,.cls-2,.cls-3{fill:#fff;}.cls-2,.cls-3{stroke:#fff;stroke-miterlimit:10;}.cls-2{stroke-width:1.01px;}.cls-3{stroke-width:2.03px;}</style></defs><path class="cls-1" d="M291.25,382.43q-9.81,11.93-17.06,15.35-6.82,3.42-10.67-1.06t-3-11.31A101,101,0,0,1,264,372.19q2.57-8.1,4.91-13.65t8.74-20.05A127.18,127.18,0,0,1,281.87,324a41.06,41.06,0,0,1-2.14-6.4q-2.55-11.93,5.55-18.34t20.05-4.69q11.52,1.27,15.78,10.66t.86,22.61a102.11,102.11,0,0,1-6,17.07,49,49,0,0,0,8.11,2.77,58.84,58.84,0,0,0,8.53,1.49q4.26.44,6,.43c1.14,0,1.71.15,1.71.42.28.29-.21.72-1.49,1.29a26.24,26.24,0,0,1-6.19,1.49,40.13,40.13,0,0,1-9.38.21A43.36,43.36,0,0,1,313,350.86Q305.33,366.22,291.25,382.43Zm-14.08.42q14.08-14.93,25.17-36.26A48.14,48.14,0,0,1,290,336.35a36.15,36.15,0,0,0-4.69,4.7L281,351.71q-4.68,10.67-8.74,22.61t-2.77,14.93Q271.21,388.81,277.17,382.85Zm-6.82,6.83-.43-.43A.39.39,0,0,0,270.35,389.68Zm26-60.15V330a40.27,40.27,0,0,0,9.39,9,25.33,25.33,0,0,0,1.28-3q7.66-17.93,4.69-25.6-1.29-3.4-7.25-4.9a15.86,15.86,0,0,0-10.67.64q-5.55,2.13-4.27,9.38c2.28-1.13,4.27-1.28,6-.42q2.55,1.71,2.77,6A17,17,0,0,1,296.37,329.53Z" transform="translate(-85.19 -90.78)"/><path class="cls-1" d="M366.33,366.22q-7.26-2.57-10.88-4.06a71.23,71.23,0,0,1-8.74-4.48q-5.13-3-7-6.82a14.33,14.33,0,0,1-1.07-9,18.89,18.89,0,0,1,1.71-4.69,26.17,26.17,0,0,1,2.77-4.48,23.12,23.12,0,0,1,4.27-4.05c1.84-1.42,3.41-2.56,4.69-3.42s3-1.92,5.33-3.2l4.91-2.77c1-.57,2.62-1.34,4.9-2.34s3.69-1.64,4.27-1.92q9-6.82,13.22-9A15.5,15.5,0,0,1,393,305q4,.64,5.33,3.63c.85,2,.49,4.12-1.06,6.4a14.19,14.19,0,0,1-6.62,5.11c-1.14.86-3.56,1.28-7.25,1.28a46.19,46.19,0,0,0-7.68.43q-3,.86-11.51,6Q342,341,350.12,347.87q5.11,3.42,17.27,7t16.43,5.76q10.65-3.84,19.83-6.61a138.44,138.44,0,0,1,13.87-3.63q4.68-.84,5.12-.43c0,.29-.43.72-1.28,1.29s-2.28,1.42-4.27,2.55-4,2.21-6.18,3.2-5.2,2.35-9.18,4.06-7.53,3.41-10.66,5.12a2.79,2.79,0,0,1,1.28,1.28q8.53,11.5-14.93,28.15-3.42,2.13-8.32,4.69a78.1,78.1,0,0,1-11.3,4.7,32.81,32.81,0,0,1-12.59,1.7,15.13,15.13,0,0,1-10-4.26,7.36,7.36,0,0,1-2.56-6,11.36,11.36,0,0,1,1.7-6.4q7.68-11.5,34.56-23A13.73,13.73,0,0,0,366.33,366.22Zm14.93,6a5.32,5.32,0,0,0-1.28-.86,1.22,1.22,0,0,1-.85.43q-23.89,12.38-32.42,20.48c-.29.28-1,1.13-2.14,2.56a7.13,7.13,0,0,0,2.14.42Q368,394.8,383,374.75a1.25,1.25,0,0,0,.43-.86C383.1,373.61,382.39,373,381.26,372.19Z" transform="translate(-85.19 -90.78)"/><path class="cls-1" d="M463.16,322.7q-17.93,5.13-31.14,22.61-5.55,7.26-5.12,11.09,0,3,11.52,0,3.4-1.27,17.27-7t22.82-7q8.1-1.29,13,2.56t3.63,11.51c-.29.58-1.43,5.12-3.41,13.65a27.71,27.71,0,0,0,6.82-1.7q7.26-3,18.77-8.75t18.77-9.17q7.24-3.4,8.11-2.56c.28.58-2.42,3.13-8.11,7.68A205,205,0,0,1,515,370.05q-12.6,7.68-20.69,9.39c-2,.29-3.7.49-5.12.64a4,4,0,0,1-3.41-1.07,31.28,31.28,0,0,0-2.35-2.13,4.47,4.47,0,0,1-1.28-3.2c-.15-1.56-.21-2.91-.21-4.05s.06-2.56.21-4.27a26.53,26.53,0,0,1,.64-4.26c.28-1.14.57-2.56.85-4.27a26.49,26.49,0,0,0,.43-3.84c-.29,0-1.71.15-4.27.43q-6.82.85-20.05,6.4a48.62,48.62,0,0,1-6.4,3l-7.67,3.2a35.83,35.83,0,0,1-7.25,1.92,49.28,49.28,0,0,1-9,.86q-7.68.42-11.31-5.55T417.51,350q6.83-17.06,29.86-29.43,14.08-7.68,25.6-6.82,8.52-.42,15.14,6.39t1.49,14.08c-2.27,2-4.55,2.56-6.82,1.71a14.34,14.34,0,0,1-6-4.27,10.53,10.53,0,0,1-1.28-4.26,8.8,8.8,0,0,0-1.71-4.48c-.85-1-2.7-1.35-5.54-1.07A19.34,19.34,0,0,0,463.16,322.7Z" transform="translate(-85.19 -90.78)"/><path class="cls-1" d="M535.25,428.07q10.66-7.68,31.14-31.57l7.68-9.17q5.53-6.61,11.09-13.22l11.09-13.23q5.54-6.6,9.17-10.66c2.41-2.7,3.77-3.91,4.05-3.63q1.71.87-19.62,31.14-26.46,37.13-43.94,53.33l-2.13,2.13-2.13,2.13a25.18,25.18,0,0,1-2.14,1.71,12.74,12.74,0,0,1-2.77,1.7c-.7.28-1.63.71-2.77,1.28a10.66,10.66,0,0,1-3.2,1.07,22.93,22.93,0,0,1-3.2.21,11.27,11.27,0,0,1-5.12-1.28q-4.26-2.55-4.91-10.23a45.42,45.42,0,0,1,.22-11.95q.86-4.26,3-12.79,6-25.6,23.47-69.11,33.27-84,69.53-152.29,4.69-9,6.4-10.67a24.9,24.9,0,0,0,5.54.43,41.88,41.88,0,0,0,4.27,3.84,16.46,16.46,0,0,1-1.28,5.12q-5.55,14.5-18.34,41.16t-13.65,28.8q-6.84,20.9-9.81,26.87a52.45,52.45,0,0,1-7.47,11.95q-4.06,4.69-7,5.12-17.49,41-32,80.62Q530.56,405,528,419.54q0,.85-.22,6c-.14,3.41-.06,5.55.22,6.4Q529.28,432.33,535.25,428.07Z" transform="translate(-85.19 -90.78)"/><path class="cls-1" d="M647,309.05q-13.23,9-24.74,27.73-14.94,24.75-5.12,35.83,11.94,5.13,33.27-5.54,2.57-1.27,11.09-6.4t15.36-9.17q6.82-4,7.68-3.2,1.28,1.71-12.37,13.22-35.41,31.14-61,20.05-10.66-10.23-8.54-25.59a57,57,0,0,1,7.26-20.9A130.48,130.48,0,0,1,624,315.88q12.81-14.08,23-18.34a10.91,10.91,0,0,1,9,.42,7.15,7.15,0,0,1,4.26,6.83,14.15,14.15,0,0,1-.42,3.41q-2.56,13.23-18.77,32-4.27,8.12-8.11,11.1a12.12,12.12,0,0,1-7.46,2.34,6.17,6.17,0,0,1-5.34-3.2,8.39,8.39,0,0,1-.42-6,10.23,10.23,0,0,1,3.41-5.55,17.16,17.16,0,0,1,5.76-1.92,17.1,17.1,0,0,0,5.76-1.91q2.13-1.29,6-6.83,7.68-11.08,9.81-21.33A26.71,26.71,0,0,0,647,309.05Z" transform="translate(-85.19 -90.78)"/><path class="cls-1" d="M708.44,366.22q-7.26-2.57-10.88-4.06a72,72,0,0,1-8.75-4.48q-5.12-3-7-6.82a14.34,14.34,0,0,1-1.06-9,18.83,18.83,0,0,1,1.7-4.69,26.82,26.82,0,0,1,2.78-4.48,23.35,23.35,0,0,1,4.26-4.05c1.85-1.42,3.42-2.56,4.69-3.42s3.06-1.92,5.34-3.2l4.9-2.77c1-.57,2.63-1.34,4.91-2.34s3.69-1.64,4.26-1.92q9-6.82,13.23-9A15.5,15.5,0,0,1,735.1,305q4,.64,5.33,3.63t-1.07,6.4a14.12,14.12,0,0,1-6.61,5.11c-1.14.86-3.56,1.28-7.25,1.28a46.19,46.19,0,0,0-7.68.43q-3,.86-11.52,6Q684.12,341,692.23,347.87q5.12,3.42,17.27,7t16.43,5.76q10.65-3.84,19.83-6.61a137,137,0,0,1,13.87-3.63c3.12-.56,4.83-.7,5.11-.43,0,.29-.42.72-1.28,1.29s-2.27,1.42-4.26,2.55-4.05,2.21-6.19,3.2-5.19,2.35-9.17,4.06-7.54,3.41-10.66,5.12a2.83,2.83,0,0,1,1.28,1.28Q743,379,719.53,395.65q-3.42,2.13-8.32,4.69A77.77,77.77,0,0,1,699.9,405a32.73,32.73,0,0,1-12.58,1.7,15.15,15.15,0,0,1-10-4.26,7.38,7.38,0,0,1-2.55-6,11.36,11.36,0,0,1,1.7-6.4q7.68-11.5,34.56-23A13.73,13.73,0,0,0,708.44,366.22Zm14.93,6a5.53,5.53,0,0,0-1.28-.86,1.24,1.24,0,0,1-.86.43q-23.9,12.38-32.42,20.48c-.28.28-1,1.13-2.13,2.56a7.07,7.07,0,0,0,2.13.42q21.33-.42,36.26-20.47a1.25,1.25,0,0,0,.43-.86C725.21,373.61,724.5,373,723.37,372.19Z" transform="translate(-85.19 -90.78)"/><path class="cls-2" d="M597.55,453.66v53.81h-4.66V500.8a20.46,20.46,0,0,1-6.67,5.74,17.19,17.19,0,0,1-8.09,1.93,17.47,17.47,0,0,1-13.32-6A20.64,20.64,0,0,1,559.29,488a20.22,20.22,0,0,1,5.57-14.34,17.67,17.67,0,0,1,13.41-6,16.69,16.69,0,0,1,8.19,2,19.13,19.13,0,0,1,6.43,6.1V453.66Zm-18.89,18.8a13.7,13.7,0,0,0-7.29,2.05,14.75,14.75,0,0,0-5.32,5.76,16.51,16.51,0,0,0,0,15.68,15,15,0,0,0,5.35,5.83,13.42,13.42,0,0,0,7.2,2.09,14.55,14.55,0,0,0,12.7-7.67,16.67,16.67,0,0,0,1.88-7.95A16,16,0,0,0,589,477,13.55,13.55,0,0,0,578.66,472.46Z" transform="translate(-85.19 -90.78)"/><path class="cls-2" d="M639.75,494.59l4,2.21a22.78,22.78,0,0,1-4.53,6.57,18,18,0,0,1-5.78,3.8,19.13,19.13,0,0,1-7.26,1.3q-9,0-14.07-6.23a22.2,22.2,0,0,1-.78-27.24,17.23,17.23,0,0,1,14.57-7.35,17.78,17.78,0,0,1,15,7.53q4,5.31,4.06,13.27H611.88a16.29,16.29,0,0,0,4.1,11.09,12.71,12.71,0,0,0,9.77,4.33,15.11,15.11,0,0,0,5.46-1,14.18,14.18,0,0,0,4.51-2.74A23.26,23.26,0,0,0,639.75,494.59Zm0-10.46a16.9,16.9,0,0,0-2.76-6.38,13.11,13.11,0,0,0-4.78-3.86,14.1,14.1,0,0,0-6.26-1.46,13.11,13.11,0,0,0-9.3,3.67,17,17,0,0,0-4.29,8Z" transform="translate(-85.19 -90.78)"/><path class="cls-2" d="M690,476.71l-3.74,2.46A15.44,15.44,0,0,0,673,472.36a14.9,14.9,0,0,0-11.15,4.56A15.3,15.3,0,0,0,657.39,488a16.43,16.43,0,0,0,2,8,14.77,14.77,0,0,0,5.6,5.81,15.59,15.59,0,0,0,8,2.07,15.86,15.86,0,0,0,13.23-6.82l3.74,2.61a18,18,0,0,1-7.07,6.5,21.59,21.59,0,0,1-10.12,2.31,19.8,19.8,0,0,1-20.19-20.09,21.19,21.19,0,0,1,2.68-10.47,19.41,19.41,0,0,1,7.38-7.55,20.6,20.6,0,0,1,10.51-2.71,21.23,21.23,0,0,1,7,1.18,19,19,0,0,1,5.75,3.06A16.47,16.47,0,0,1,690,476.71Z" transform="translate(-85.19 -90.78)"/><path class="cls-2" d="M717,467.65a17.76,17.76,0,0,1,14.07,6.49,21.71,21.71,0,0,1-.29,28.25,18.7,18.7,0,0,1-27.6,0,21.66,21.66,0,0,1-.29-28.21A17.74,17.74,0,0,1,717,467.65Zm0,4.89a13.32,13.32,0,0,0-10.14,4.6,15.87,15.87,0,0,0-4.23,11.13,16.44,16.44,0,0,0,1.93,7.85,14.12,14.12,0,0,0,5.22,5.62,14.15,14.15,0,0,0,14.44,0,14.12,14.12,0,0,0,5.22-5.62,16.44,16.44,0,0,0,1.93-7.85,15.84,15.84,0,0,0-4.25-11.13A13.33,13.33,0,0,0,717,472.54Z" transform="translate(-85.19 -90.78)"/><path class="cls-1" d="M255.92,204.42c-10.77,2.54-21.63,4.73-32.53,6.7s-21.88,3.55-32.91,4.85-22.11,2.19-33.26,2.52a195.27,195.27,0,0,1-33.59-1.6,83.72,83.72,0,0,1-16.71-4.16,47.64,47.64,0,0,1-8-3.84A31.22,31.22,0,0,1,91.7,203c-.53-.6-1-1.23-1.52-1.88s-.9-1.29-1.31-2a25.55,25.55,0,0,1-2.12-4.33,24.45,24.45,0,0,1-1.54-9.57A30.58,30.58,0,0,1,87.09,176a45.14,45.14,0,0,1,4-8.16,75.39,75.39,0,0,1,11-13.6A134.58,134.58,0,0,1,115.05,143a220.57,220.57,0,0,1,28.49-18.3A298.69,298.69,0,0,1,206,99.36a225.94,225.94,0,0,1,67.23-8.5,173.12,173.12,0,0,1,34,4.25,127.22,127.22,0,0,1,32.51,12.12,88,88,0,0,1,14.64,10,69.21,69.21,0,0,1,12.24,13.3,57.69,57.69,0,0,1,10.61,34.76c-.3,12.28-4.05,24-9.45,34.35A144.16,144.16,0,0,1,347.89,228c-3.8,4.27-7.7,8.42-11.81,12.33l-1.52,1.49-1.69,1.52c-1.11,1-2.29,1.93-3.44,2.89-2.34,1.81-4.72,3.54-7.15,5.12A180.47,180.47,0,0,1,291.81,267q-7.87,3.25-16,5.83T259.5,277.5a214.06,214.06,0,0,1-33.57,5.61A140.71,140.71,0,0,1,191.59,282c-5.52-.92-10.89-1.88-16.26-2.63-2.67-.38-5.34-.7-8-.91-1.3-.11-2.59-.18-3.83-.2a24,24,0,0,0-3.41.15,6.88,6.88,0,0,0-1,.21c-.09,0-.05,0,.07-.06a2.52,2.52,0,0,0,.77-.91,3,3,0,0,0,.35-1.65,1.84,1.84,0,0,0-.19-.71,4.82,4.82,0,0,0,.48.6,31.81,31.81,0,0,0,2.59,2.45c1,.85,2.05,1.72,3.11,2.6,4.27,3.51,8.63,7.19,12.73,11.12a144.3,144.3,0,0,1,21.85,26.25A153.81,153.81,0,0,1,216,348.85c1,2.67,1.89,5.35,2.73,8,.41,1.36.83,2.71,1.21,4.07l1.12,4a112.24,112.24,0,0,0,5.35,15.12,132.35,132.35,0,0,0,16.51,27.73,161.8,161.8,0,0,0,22.35,23.74,197.68,197.68,0,0,0,56.08,34.19,185.34,185.34,0,0,1-58.87-30.82,166.7,166.7,0,0,1-24.31-23.29,139.74,139.74,0,0,1-18.53-28.44,120.89,120.89,0,0,1-6.36-15.9l-.66-2-.58-1.94c-.38-1.3-.81-2.58-1.21-3.87-.85-2.56-1.74-5.1-2.69-7.62a145.66,145.66,0,0,0-14.61-28.66,135.27,135.27,0,0,0-20.77-24.42c-3.93-3.68-8.07-7.1-12.38-10.56-1.07-.88-2.17-1.76-3.28-2.7a40.78,40.78,0,0,1-3.46-3.21,12.41,12.41,0,0,1-2-2.74,7.5,7.5,0,0,1-.78-2.69,6.45,6.45,0,0,1,.75-3.65,6.9,6.9,0,0,1,2.18-2.4,9.75,9.75,0,0,1,1.91-1,15.17,15.17,0,0,1,3-.76,32.68,32.68,0,0,1,4.86-.35c1.53,0,3,.05,4.46.13,2.91.17,5.74.46,8.55.78,5.61.66,11.15,1.53,16.56,2.31a130.25,130.25,0,0,0,31.83.5c21.35-2.13,42.48-8,62.37-16.19a169.8,169.8,0,0,0,28.37-14.77c2.2-1.45,4.28-3,6.32-4.57,1-.82,2-1.6,2.89-2.46l1.39-1.26,1.44-1.42c3.89-3.73,7.55-7.66,11.09-11.67a132.16,132.16,0,0,0,18.07-26c4.74-9.24,7.9-19.15,8.17-29.05a45.67,45.67,0,0,0-8.34-27.67,57.28,57.28,0,0,0-10.13-11.07,75.77,75.77,0,0,0-12.68-8.72A114.94,114.94,0,0,0,304.5,106.5a170.93,170.93,0,0,0-31.73-4.25C229.67,100.36,186.68,113.43,148,133a211.5,211.5,0,0,0-27.65,17A125.83,125.83,0,0,0,108,160.25a70.32,70.32,0,0,0-10.15,11.86c-2.79,4.25-4.83,8.89-5.13,13.5a17,17,0,0,0,.88,6.73A18.51,18.51,0,0,0,95,195.49c.29.51.61,1,.94,1.51s.68.93,1.06,1.39c3,3.61,7.48,6.27,12.27,8.24a78.62,78.62,0,0,0,15.33,4.3,190.07,190.07,0,0,0,32.54,2.79c11,.12,22-.39,33-1.14s22-1.92,33-3.3S245,206.36,255.92,204.42Z" transform="translate(-85.19 -90.78)"/><path class="cls-3" d="M197,188c-9.42-2.07-11.95,13.22-13.37,18.58C170,258.39,124.71,446.36,124.71,446.36s69.76-219.7,74.18-233S207.44,190.24,197,188Zm-4.78,39a5,5,0,0,1-6.16,3.45l-.65-.18A5,5,0,0,1,182,224l8-28.34a5,5,0,0,1,6.16-3.45l.65.18a5,5,0,0,1,3.46,6.16Z" transform="translate(-85.19 -90.78)"/></svg>