<svg id="Capa_1" data-name="Capa 1" xmlns="http://www.w3.org/2000/svg" viewBox="0 0 139.84 86.07"><defs><style>.cls-1,.cls-2{stroke:#000;stroke-miterlimit:10;}.cls-1{stroke-width:0.21px;}.cls-2{stroke-width:0.42px;}</style></defs><path d="M42.39,60a11.38,11.38,0,0,1-3.52,3.16A1.64,1.64,0,0,1,36.68,63a2.83,2.83,0,0,1-.61-2.32,19.91,19.91,0,0,1,.7-2.72c.35-1.11.69-2.05,1-2.81S38.7,53,39.58,51a24.43,24.43,0,0,1,.88-3A7.57,7.57,0,0,1,40,46.68a3.47,3.47,0,0,1,1.14-3.78,5.18,5.18,0,0,1,4.12-1,3.73,3.73,0,0,1,3.25,2.19,6.88,6.88,0,0,1,.18,4.66,21.28,21.28,0,0,1-1.23,3.51,10.93,10.93,0,0,0,1.67.57,11.9,11.9,0,0,0,1.75.31c.59,0,1,.08,1.23.08s.35,0,.35.09,0,.15-.3.26a5.39,5.39,0,0,1-1.28.31A8.69,8.69,0,0,1,49,54a9.45,9.45,0,0,1-2.11-.44A31.55,31.55,0,0,1,42.39,60Zm-2.9.09a32.89,32.89,0,0,0,5.18-7.46,10.15,10.15,0,0,1-2.55-2.11,7.2,7.2,0,0,0-1,1l-.88,2.19q-1,2.2-1.8,4.66c-.56,1.63-.75,2.66-.57,3.07A6.13,6.13,0,0,0,39.49,60.11Zm-1.41,1.41L38,61.43C38,61.49,38,61.52,38.08,61.52Zm5.36-12.38v.08a8.29,8.29,0,0,0,1.93,1.85,3.32,3.32,0,0,0,.26-.62c1.06-2.45,1.38-4.21,1-5.26-.17-.47-.67-.81-1.49-1a3.27,3.27,0,0,0-2.2.13c-.76.29-1,.94-.87,1.93a1.34,1.34,0,0,1,1.22-.09,1.49,1.49,0,0,1,.58,1.23A3.65,3.65,0,0,1,43.44,49.14Z"/><path d="M57.84,56.69c-1-.35-1.74-.63-2.24-.84a14.07,14.07,0,0,1-1.8-.92,3.56,3.56,0,0,1-1.45-1.4,3,3,0,0,1-.22-1.85,4.2,4.2,0,0,1,.35-1,6.06,6.06,0,0,1,.57-.92,5.13,5.13,0,0,1,.88-.84c.38-.29.7-.53,1-.7s.63-.4,1.09-.66L57,47a10.26,10.26,0,0,1,1-.48l.88-.4a20.79,20.79,0,0,1,2.72-1.84,3.25,3.25,0,0,1,1.72-.22,1.23,1.23,0,0,1,.87,2.06,2.92,2.92,0,0,1-1.36,1.06,2.83,2.83,0,0,1-1.49.26,9.18,9.18,0,0,0-1.58.09,12.14,12.14,0,0,0-2.37,1.23c-3,1.81-4,3.19-2.9,4.12a14.18,14.18,0,0,0,3.56,1.45,23.91,23.91,0,0,1,3.38,1.19c1.46-.53,2.82-1,4.08-1.36s2.21-.63,2.85-.75,1-.15,1.06-.09-.09.15-.27.26-.47.3-.87.53A14,14,0,0,1,67,54.8c-.44.21-1.07.48-1.89.83s-1.55.71-2.19,1.06a.55.55,0,0,1,.26.26q1.75,2.37-3.07,5.8-.7.44-1.71,1a16.71,16.71,0,0,1-2.33,1,6.7,6.7,0,0,1-2.59.35,3.1,3.1,0,0,1-2.06-.88,1.51,1.51,0,0,1-.53-1.23,2.38,2.38,0,0,1,.35-1.32q1.59-2.37,7.11-4.74A3.5,3.5,0,0,0,57.84,56.69Zm3.07,1.23a1.17,1.17,0,0,0-.26-.18.26.26,0,0,1-.18.09A31.87,31.87,0,0,0,53.8,62c-.06.06-.21.24-.44.53a1.43,1.43,0,0,0,.44.09c2.93-.06,5.41-1.47,7.46-4.22a.22.22,0,0,0,.09-.17A5,5,0,0,0,60.91,57.92Z"/><path d="M77.77,47.73a12.22,12.22,0,0,0-6.41,4.66,3.75,3.75,0,0,0-1.06,2.28q0,.61,2.37,0c.47-.18,1.66-.66,3.56-1.45a20.67,20.67,0,0,1,4.7-1.45,3.32,3.32,0,0,1,2.67.53,2.27,2.27,0,0,1,.75,2.37c-.06.12-.29,1-.7,2.81a5.93,5.93,0,0,0,1.4-.35q1.5-.62,3.87-1.8c1.58-.79,2.86-1.42,3.86-1.89s1.55-.64,1.67-.53-.5.65-1.67,1.58a42.34,42.34,0,0,1-4.35,3,14.48,14.48,0,0,1-4.25,1.93l-1.06.13a.8.8,0,0,1-.7-.22l-.48-.44a.89.89,0,0,1-.27-.66c0-.32,0-.6,0-.83s0-.53,0-.88a7.3,7.3,0,0,1,.13-.88q.09-.35.18-.87a5.35,5.35,0,0,0,.09-.79l-.88.08a17.82,17.82,0,0,0-4.13,1.32,10,10,0,0,1-1.31.62l-1.58.65a7.44,7.44,0,0,1-1.5.4,10,10,0,0,1-1.84.17,2.36,2.36,0,0,1-2.33-1.14,2.89,2.89,0,0,1-.13-2.72q1.41-3.51,6.15-6.06a9.63,9.63,0,0,1,5.27-1.4,3.91,3.91,0,0,1,3.11,1.32,2.05,2.05,0,0,1,.31,2.89,1.33,1.33,0,0,1-1.41.35,2.93,2.93,0,0,1-1.22-.87,2.23,2.23,0,0,1-.27-.88,1.74,1.74,0,0,0-.35-.92c-.17-.21-.56-.28-1.14-.22A4.13,4.13,0,0,0,77.77,47.73Z"/><path d="M92.6,69.42A44.09,44.09,0,0,0,99,62.92L100.59,61l2.29-2.72,2.28-2.72q1.14-1.37,1.89-2.19c.49-.56.77-.81.83-.75.23.12-1.11,2.25-4,6.41a75.14,75.14,0,0,1-9,11l-.44.44-.44.44a3.75,3.75,0,0,1-.44.35,2.43,2.43,0,0,1-.57.35c-.14.06-.34.15-.57.27a2.33,2.33,0,0,1-.66.22,6.5,6.5,0,0,1-.66,0,2.39,2.39,0,0,1-1-.26,2.54,2.54,0,0,1-1-2.11,9.58,9.58,0,0,1,0-2.46c.12-.59.33-1.46.62-2.63a104.7,104.7,0,0,1,4.83-14.23,309.07,309.07,0,0,1,14.31-31.34,12.15,12.15,0,0,1,1.31-2.19,5.36,5.36,0,0,0,1.15.08,7.54,7.54,0,0,0,.87.79,3.22,3.22,0,0,1-.26,1.06q-1.14,3-3.77,8.47c-1.76,3.66-2.7,5.63-2.81,5.93a53.13,53.13,0,0,1-2,5.53,10.94,10.94,0,0,1-1.54,2.46,2.77,2.77,0,0,1-1.45,1q-3.6,8.43-6.58,16.59a62.13,62.13,0,0,0-2.55,8.78c0,.12,0,.53,0,1.23a5,5,0,0,0,0,1.32C91.29,70.27,91.78,70,92.6,69.42Z"/><path d="M115.6,44.92a18.3,18.3,0,0,0-5.09,5.71q-3.08,5.09-1.05,7.37,2.46,1.06,6.85-1.14c.35-.17,1.11-.61,2.28-1.31s2.22-1.33,3.16-1.89,1.46-.78,1.58-.66-.67,1.14-2.55,2.72q-7.27,6.41-12.55,4.13a5.82,5.82,0,0,1-1.76-5.27,11.89,11.89,0,0,1,1.5-4.3,26.5,26.5,0,0,1,2.89-4,14.76,14.76,0,0,1,4.74-3.78,2.29,2.29,0,0,1,1.85.09,1.47,1.47,0,0,1,.88,1.4,2.88,2.88,0,0,1-.09.71c-.35,1.81-1.64,4-3.86,6.58a7.21,7.21,0,0,1-1.67,2.28,2.46,2.46,0,0,1-1.54.49,1.28,1.28,0,0,1-1.1-.66,1.75,1.75,0,0,1-.08-1.23,2.05,2.05,0,0,1,.7-1.14,3.46,3.46,0,0,1,1.18-.4,3.53,3.53,0,0,0,1.19-.39,5.35,5.35,0,0,0,1.23-1.41,12.32,12.32,0,0,0,2-4.39C115.9,44.72,115.66,44.87,115.6,44.92Z"/><path d="M128.25,56.69c-1-.35-1.75-.63-2.24-.84a14.07,14.07,0,0,1-1.8-.92,3.56,3.56,0,0,1-1.45-1.4,3,3,0,0,1-.22-1.85,4.2,4.2,0,0,1,.35-1,6.06,6.06,0,0,1,.57-.92,5.13,5.13,0,0,1,.88-.84c.38-.29.7-.53,1-.7s.62-.4,1.09-.66l1-.57a10.26,10.26,0,0,1,1-.48l.88-.4A20.79,20.79,0,0,1,132,44.31a3.23,3.23,0,0,1,1.71-.22,1.23,1.23,0,0,1,.88,2.06,2.92,2.92,0,0,1-1.36,1.06,2.83,2.83,0,0,1-1.49.26,9.18,9.18,0,0,0-1.58.09,12.14,12.14,0,0,0-2.37,1.23c-3,1.81-4,3.19-2.9,4.12a14.18,14.18,0,0,0,3.56,1.45,24.41,24.41,0,0,1,3.38,1.19c1.46-.53,2.82-1,4.08-1.36s2.21-.63,2.85-.75,1-.15,1.06-.09-.09.15-.27.26-.47.3-.88.53a13.85,13.85,0,0,1-1.27.66c-.44.21-1.07.48-1.89.83s-1.55.71-2.19,1.06a.55.55,0,0,1,.26.26q1.76,2.37-3.07,5.8-.71.44-1.71,1a17.24,17.24,0,0,1-2.33,1,6.7,6.7,0,0,1-2.59.35,3.08,3.08,0,0,1-2.06-.88,1.51,1.51,0,0,1-.53-1.23,2.38,2.38,0,0,1,.35-1.32q1.59-2.37,7.11-4.74A3.5,3.5,0,0,0,128.25,56.69Zm3.07,1.23a1.17,1.17,0,0,0-.26-.18.26.26,0,0,1-.18.09A31.87,31.87,0,0,0,124.21,62c-.06.06-.21.24-.44.53a1.37,1.37,0,0,0,.44.09q4.38-.09,7.46-4.22a.22.22,0,0,0,.09-.17A5,5,0,0,0,131.32,57.92Z"/><path class="cls-1" d="M105.43,74.68V85.76h-1V84.39a4.35,4.35,0,0,1-1.38,1.18,3.69,3.69,0,0,1-4.4-.84,4.23,4.23,0,0,1-1.14-3,4.15,4.15,0,0,1,1.15-2.95,3.63,3.63,0,0,1,2.76-1.23,3.38,3.38,0,0,1,1.68.42,3.87,3.87,0,0,1,1.33,1.26V74.68Zm-3.89,3.87A2.84,2.84,0,0,0,100,79a3,3,0,0,0-1.1,1.18,3.4,3.4,0,0,0-.4,1.61A3.31,3.31,0,0,0,99,83.39a3.11,3.11,0,0,0,1.1,1.2,2.8,2.8,0,0,0,1.48.43,3,3,0,0,0,2.61-1.58,3.4,3.4,0,0,0,.39-1.64,3.25,3.25,0,0,0-.87-2.31A2.78,2.78,0,0,0,101.54,78.55Z"/><path class="cls-1" d="M114.11,83.11l.82.45a4.72,4.72,0,0,1-.93,1.35,3.59,3.59,0,0,1-1.19.79,3.93,3.93,0,0,1-1.5.26,3.5,3.5,0,0,1-2.89-1.28,4.53,4.53,0,0,1-.16-5.6,3.53,3.53,0,0,1,3-1.52,3.67,3.67,0,0,1,3.09,1.55,4.54,4.54,0,0,1,.83,2.73h-6.8a3.31,3.31,0,0,0,.84,2.29,2.62,2.62,0,0,0,2,.89,3.09,3.09,0,0,0,1.12-.21,2.87,2.87,0,0,0,.93-.57A4.64,4.64,0,0,0,114.11,83.11Zm0-2.15a3.51,3.51,0,0,0-.57-1.32,2.66,2.66,0,0,0-1-.79,2.91,2.91,0,0,0-1.29-.3,2.69,2.69,0,0,0-1.91.75,3.49,3.49,0,0,0-.89,1.66Z"/><path class="cls-1" d="M124.45,79.43l-.77.51A3.18,3.18,0,0,0,121,78.53a3.11,3.11,0,0,0-2.3.94,3.2,3.2,0,0,0-.91,2.28,3.43,3.43,0,0,0,.42,1.65,3.06,3.06,0,0,0,1.15,1.19A3.17,3.17,0,0,0,121,85a3.26,3.26,0,0,0,2.72-1.41l.77.54A3.7,3.7,0,0,1,123,85.49a4.4,4.4,0,0,1-2.08.47,4.08,4.08,0,0,1-4.16-4.13,4.4,4.4,0,0,1,.56-2.16,4,4,0,0,1,1.52-1.55,4.4,4.4,0,0,1,3.61-.31,3.89,3.89,0,0,1,1.18.63A3.37,3.37,0,0,1,124.45,79.43Z"/><path class="cls-1" d="M130,77.56a3.67,3.67,0,0,1,2.9,1.34,4.48,4.48,0,0,1-.06,5.81,3.85,3.85,0,0,1-5.68,0,4.43,4.43,0,0,1-.06-5.8A3.63,3.63,0,0,1,130,77.56Zm0,1a2.75,2.75,0,0,0-2.09,1,3.25,3.25,0,0,0-.87,2.29,3.31,3.31,0,0,0,.4,1.61A2.84,2.84,0,0,0,130,85a2.82,2.82,0,0,0,1.48-.41,2.89,2.89,0,0,0,1.08-1.16,3.43,3.43,0,0,0,.4-1.61,3.26,3.26,0,0,0-.88-2.29A2.75,2.75,0,0,0,130,78.57Z"/><path d="M35.12,23.39a118.22,118.22,0,0,1-13.47,2.36A56,56,0,0,1,7.89,26a17,17,0,0,1-3.44-.86,7.9,7.9,0,0,1-3.12-2A5.26,5.26,0,0,1,0,19.44a7.5,7.5,0,0,1,1.22-3.57,20.42,20.42,0,0,1,4.92-5.1A45.23,45.23,0,0,1,12,7,61.23,61.23,0,0,1,24.83,1.77,46.42,46.42,0,0,1,38.67,0,30.42,30.42,0,0,1,52.35,3.39a16.17,16.17,0,0,1,5.54,4.79,12,12,0,0,1,2.18,7.16,16.3,16.3,0,0,1-1.94,7.07A29.68,29.68,0,0,1,54,28.23c-.78.88-1.58,1.74-2.43,2.54-.39.41-.91.81-1.36,1.22s-1,.73-1.48,1.05a38,38,0,0,1-6.27,3.23,47.49,47.49,0,0,1-13.56,3.31,30.47,30.47,0,0,1-7.07-.22c-1.13-.19-2.24-.39-3.34-.55a15.13,15.13,0,0,0-3.13-.2l-.22,0s0,0,.17-.19a.62.62,0,0,0,.07-.33c0-.08,0-.1,0-.14s0,.06.1.13a14.63,14.63,0,0,0,1.17,1c.88.72,1.78,1.48,2.62,2.29a29.42,29.42,0,0,1,4.49,5.4,31.88,31.88,0,0,1,3.1,6.28c.41,1.08.75,2.23,1.05,3.31A23.52,23.52,0,0,0,29,59.55a31.32,31.32,0,0,0,8,10.59,40.93,40.93,0,0,0,11.55,7,38.33,38.33,0,0,1-12.11-6.36,34.27,34.27,0,0,1-5-4.78,29.09,29.09,0,0,1-3.79-5.86,25.58,25.58,0,0,1-1.3-3.27c-.35-1.11-.65-2.15-1.06-3.19a29.81,29.81,0,0,0-3-5.9,28.2,28.2,0,0,0-4.29-5c-.81-.75-1.66-1.46-2.55-2.17a15.5,15.5,0,0,1-1.38-1.21,2.71,2.71,0,0,1-.4-.56,1.6,1.6,0,0,1-.16-.55,1.25,1.25,0,0,1,.15-.74,1.55,1.55,0,0,1,.83-.7,3,3,0,0,1,.61-.15,15.29,15.29,0,0,1,3.68.11c1.15.13,2.29.31,3.41.46a28.11,28.11,0,0,0,6.55.11A46.52,46.52,0,0,0,41.58,34a34.38,34.38,0,0,0,5.84-3c.46-.29.87-.63,1.3-.94s.78-.64,1.18-1c.8-.77,1.55-1.58,2.28-2.41a26.52,26.52,0,0,0,3.72-5.34,14,14,0,0,0,1.68-6,9.49,9.49,0,0,0-1.71-5.69,13.65,13.65,0,0,0-4.7-4.07A28.75,28.75,0,0,0,38.58,2.36C29.71,2,20.87,4.67,12.89,8.68a44.12,44.12,0,0,0-5.7,3.49,19.08,19.08,0,0,0-4.63,4.55,6,6,0,0,0-1,2.8,3.77,3.77,0,0,0,.89,2.64,6.52,6.52,0,0,0,2.54,1.69,16.38,16.38,0,0,0,3.16.88,55.16,55.16,0,0,0,13.48.35Q28.38,24.56,35.12,23.39Z"/><path class="cls-2" d="M23,20c-1.94-.43-2.46,2.72-2.76,3.83C17.43,34.5,8.11,73.18,8.11,73.18S22.47,28,23.38,25.24,25.14,20.47,23,20Zm-1,8a1,1,0,0,1-1.27.71l-.13,0a1,1,0,0,1-.71-1.26l1.64-5.84a1,1,0,0,1,1.27-.71l.13,0a1,1,0,0,1,.71,1.27Z"/></svg>